<?xml version="1.0" encoding="UTF-8"?>
<svg id="Capa_2" data-name="Capa 2" xmlns="http://www.w3.org/2000/svg" viewBox="0 0 90 90.04">
  <defs>
    <style>
      .cls-1 {
        fill: #0078d3;
      }
    </style>
  </defs>
  <g id="Capa_1-2" data-name="Capa 1">
    <g>
      <path class="cls-1" d="M70.59,59.03l-3.02-1.58c-4.59,8.73-5.43,19.06-4.39,28.8H26.95l4.77-14.41c.1-.52-.06-1.38-.38-1.76-1.05-1.23-7.17.39-9.14.37-5.19-.07-7.33-1.73-7.86-6.92-.22-2.1.59-9.01.13-9.98-1.41-2.96-11.75,1.68-10.71-4.02l9.93-15.08c-.46-6.2-.16-11.59,2.89-17.13C22.62,6.31,36.83,3.74,48.41,3.95V.08C30.77-.46,11.15,6.85,9.7,26.97c-.09,1.33.38,5.95.19,6.5-1.16,3.39-7.22,9.62-9.12,13.41-1.89,3.76-.24,8.74,4.2,9.47,1.7.28,4.02-.2,5.8,0-.87,4.69-.41,14.43,4.74,16.54.39.16,3.34,1.04,3.53,1.04h7.91l-4.56,13.94c-.19.98.46,1.77,1.3,2.17h42.41l1.34-1.86c-1.39-7.32-1.15-14.86.77-22.06.64-2.42,1.6-4.73,2.39-7.1ZM57.88,39.49c-4.14-.26-7.12-3.24-7.39-7.39h-3.85c.42,6.35,4.95,10.74,11.25,11.24v-3.85ZM57.9,20.83l.05,3.47c4.46.6,7.14,3.28,7.74,7.74l3.47.05c.4-6.02-5.22-11.73-11.26-11.26ZM57.9,20.83l.05,3.47c4.46.6,7.14,3.28,7.74,7.74l3.47.05c.4-6.02-5.22-11.73-11.26-11.26ZM57.88,39.49c-4.14-.26-7.12-3.24-7.39-7.39h-3.85c.42,6.35,4.95,10.74,11.25,11.24v-3.85ZM57.88,39.49c-4.14-.26-7.12-3.24-7.39-7.39h-3.85c.42,6.35,4.95,10.74,11.25,11.24v-3.85ZM57.9,20.83l.05,3.47c4.46.6,7.14,3.28,7.74,7.74l3.47.05c.4-6.02-5.22-11.73-11.26-11.26ZM57.9,20.83l.05,3.47c4.46.6,7.14,3.28,7.74,7.74l3.47.05c.4-6.02-5.22-11.73-11.26-11.26ZM50.5,32.1h-3.85c.42,6.35,4.95,10.74,11.25,11.24v-3.85c-4.15-.26-7.14-3.24-7.4-7.39ZM58,15.1c-9.32,0-16.87,7.55-16.87,16.87s7.55,16.87,16.87,16.87,16.87-7.55,16.87-16.87-7.55-16.87-16.87-16.87ZM58.02,45.08c-7.24,0-13.12-5.87-13.12-13.12s5.88-13.12,13.12-13.12,13.12,5.87,13.12,13.12-5.87,13.12-13.12,13.12ZM57.9,20.83l.05,3.47c4.46.6,7.14,3.28,7.74,7.74l3.47.05c.4-6.02-5.22-11.73-11.26-11.26ZM50.5,32.1h-3.85c.42,6.35,4.95,10.74,11.25,11.24v-3.85c-4.15-.26-7.14-3.24-7.4-7.39ZM57.88,39.49c-4.14-.26-7.12-3.24-7.39-7.39h-3.85c.42,6.35,4.95,10.74,11.25,11.24v-3.85ZM57.9,20.83l.05,3.47c4.46.6,7.14,3.28,7.74,7.74l3.47.05c.4-6.02-5.22-11.73-11.26-11.26ZM57.9,20.83l.05,3.47c4.46.6,7.14,3.28,7.74,7.74l3.47.05c.4-6.02-5.22-11.73-11.26-11.26ZM57.88,39.49c-4.14-.26-7.12-3.24-7.39-7.39h-3.85c.42,6.35,4.95,10.74,11.25,11.24v-3.85ZM57.88,39.49c-4.14-.26-7.12-3.24-7.39-7.39h-3.85c.42,6.35,4.95,10.74,11.25,11.24v-3.85ZM57.9,20.83l.05,3.47c4.46.6,7.14,3.28,7.74,7.74l3.47.05c.4-6.02-5.22-11.73-11.26-11.26ZM57.9,20.83l.05,3.47c4.46.6,7.14,3.28,7.74,7.74l3.47.05c.4-6.02-5.22-11.73-11.26-11.26ZM57.88,39.49c-4.14-.26-7.12-3.24-7.39-7.39h-3.85c.42,6.35,4.95,10.74,11.25,11.24v-3.85ZM57.88,39.49c-4.14-.26-7.12-3.24-7.39-7.39h-3.85c.42,6.35,4.95,10.74,11.25,11.24v-3.85ZM57.9,20.83l.05,3.47c4.46.6,7.14,3.28,7.74,7.74l3.47.05c.4-6.02-5.22-11.73-11.26-11.26ZM57.9,20.83l.05,3.47c4.46.6,7.14,3.28,7.74,7.74l3.47.05c.4-6.02-5.22-11.73-11.26-11.26ZM50.5,32.1h-3.85c.42,6.35,4.95,10.74,11.25,11.24v-3.85c-4.15-.26-7.14-3.24-7.4-7.39ZM58,15.1c-9.32,0-16.87,7.55-16.87,16.87s7.55,16.87,16.87,16.87,16.87-7.55,16.87-16.87-7.55-16.87-16.87-16.87ZM58.02,45.08c-7.24,0-13.12-5.87-13.12-13.12s5.88-13.12,13.12-13.12,13.12,5.87,13.12,13.12-5.87,13.12-13.12,13.12ZM57.9,20.83l.05,3.47c4.46.6,7.14,3.28,7.74,7.74l3.47.05c.4-6.02-5.22-11.73-11.26-11.26ZM50.5,32.1h-3.85c.42,6.35,4.95,10.74,11.25,11.24v-3.85c-4.15-.26-7.14-3.24-7.4-7.39ZM57.88,39.49c-4.14-.26-7.12-3.24-7.39-7.39h-3.85c.42,6.35,4.95,10.74,11.25,11.24v-3.85ZM57.9,20.83l.05,3.47c4.46.6,7.14,3.28,7.74,7.74l3.47.05c.4-6.02-5.22-11.73-11.26-11.26ZM57.9,20.83l.05,3.47c4.46.6,7.14,3.28,7.74,7.74l3.47.05c.4-6.02-5.22-11.73-11.26-11.26ZM57.88,39.49c-4.14-.26-7.12-3.24-7.39-7.39h-3.85c.42,6.35,4.95,10.74,11.25,11.24v-3.85ZM57.88,39.49c-4.14-.26-7.12-3.24-7.39-7.39h-3.85c.42,6.35,4.95,10.74,11.25,11.24v-3.85ZM57.9,20.83l.05,3.47c4.46.6,7.14,3.28,7.74,7.74l3.47.05c.4-6.02-5.22-11.73-11.26-11.26ZM57.9,20.83l.05,3.47c4.46.6,7.14,3.28,7.74,7.74l3.47.05c.4-6.02-5.22-11.73-11.26-11.26ZM57.88,39.49c-4.14-.26-7.12-3.24-7.39-7.39h-3.85c.42,6.35,4.95,10.74,11.25,11.24v-3.85ZM57.88,39.49c-4.14-.26-7.12-3.24-7.39-7.39h-3.85c.42,6.35,4.95,10.74,11.25,11.24v-3.85ZM57.9,20.83l.05,3.47c4.46.6,7.14,3.28,7.74,7.74l3.47.05c.4-6.02-5.22-11.73-11.26-11.26ZM57.9,20.83l.05,3.47c4.46.6,7.14,3.28,7.74,7.74l3.47.05c.4-6.02-5.22-11.73-11.26-11.26ZM50.5,32.1h-3.85c.42,6.35,4.95,10.74,11.25,11.24v-3.85c-4.15-.26-7.14-3.24-7.4-7.39ZM58,15.1c-9.32,0-16.87,7.55-16.87,16.87s7.55,16.87,16.87,16.87,16.87-7.55,16.87-16.87-7.55-16.87-16.87-16.87ZM58.02,45.08c-7.24,0-13.12-5.87-13.12-13.12s5.88-13.12,13.12-13.12,13.12,5.87,13.12,13.12-5.87,13.12-13.12,13.12ZM57.9,20.83l.05,3.47c4.46.6,7.14,3.28,7.74,7.74l3.47.05c.4-6.02-5.22-11.73-11.26-11.26ZM50.5,32.1h-3.85c.42,6.35,4.95,10.74,11.25,11.24v-3.85c-4.15-.26-7.14-3.24-7.4-7.39ZM57.88,39.49c-4.14-.26-7.12-3.24-7.39-7.39h-3.85c.42,6.35,4.95,10.74,11.25,11.24v-3.85ZM57.9,20.83l.05,3.47c4.46.6,7.14,3.28,7.74,7.74l3.47.05c.4-6.02-5.22-11.73-11.26-11.26ZM57.9,20.83l.05,3.47c4.46.6,7.14,3.28,7.74,7.74l3.47.05c.4-6.02-5.22-11.73-11.26-11.26ZM57.88,39.49c-4.14-.26-7.12-3.24-7.39-7.39h-3.85c.42,6.35,4.95,10.74,11.25,11.24v-3.85ZM57.88,39.49c-4.14-.26-7.12-3.24-7.39-7.39h-3.85c.42,6.35,4.95,10.74,11.25,11.24v-3.85ZM57.9,20.83l.05,3.47c4.46.6,7.14,3.28,7.74,7.74l3.47.05c.4-6.02-5.22-11.73-11.26-11.26ZM57.9,20.83l.05,3.47c4.46.6,7.14,3.28,7.74,7.74l3.47.05c.4-6.02-5.22-11.73-11.26-11.26ZM50.5,32.1h-3.85c.42,6.35,4.95,10.74,11.25,11.24v-3.85c-4.15-.26-7.14-3.24-7.4-7.39ZM58,15.1c-9.32,0-16.87,7.55-16.87,16.87s7.55,16.87,16.87,16.87,16.87-7.55,16.87-16.87-7.55-16.87-16.87-16.87ZM58.02,45.08c-7.24,0-13.12-5.87-13.12-13.12s5.88-13.12,13.12-13.12,13.12,5.87,13.12,13.12-5.87,13.12-13.12,13.12ZM57.9,20.83l.05,3.47c4.46.6,7.14,3.28,7.74,7.74l3.47.05c.4-6.02-5.22-11.73-11.26-11.26ZM50.5,32.1h-3.85c.42,6.35,4.95,10.74,11.25,11.24v-3.85c-4.15-.26-7.14-3.24-7.4-7.39ZM57.88,39.49c-4.14-.26-7.12-3.24-7.39-7.39h-3.85c.42,6.35,4.95,10.74,11.25,11.24v-3.85ZM57.9,20.83l.05,3.47c4.46.6,7.14,3.28,7.74,7.74l3.47.05c.4-6.02-5.22-11.73-11.26-11.26ZM57.9,20.83l.05,3.47c4.46.6,7.14,3.28,7.74,7.74l3.47.05c.4-6.02-5.22-11.73-11.26-11.26ZM57.88,39.49c-4.14-.26-7.12-3.24-7.39-7.39h-3.85c.42,6.35,4.95,10.74,11.25,11.24v-3.85ZM57.88,39.49c-4.14-.26-7.12-3.24-7.39-7.39h-3.85c.42,6.35,4.95,10.74,11.25,11.24v-3.85ZM57.9,20.83l.05,3.47c4.46.6,7.14,3.28,7.74,7.74l3.47.05c.4-6.02-5.22-11.73-11.26-11.26ZM57.9,20.83l.05,3.47c4.46.6,7.14,3.28,7.74,7.74l3.47.05c.4-6.02-5.22-11.73-11.26-11.26ZM50.5,32.1h-3.85c.42,6.35,4.95,10.74,11.25,11.24v-3.85c-4.15-.26-7.14-3.24-7.4-7.39ZM58,15.1c-9.32,0-16.87,7.55-16.87,16.87s7.55,16.87,16.87,16.87,16.87-7.55,16.87-16.87-7.55-16.87-16.87-16.87ZM58.02,45.08c-7.24,0-13.12-5.87-13.12-13.12s5.88-13.12,13.12-13.12,13.12,5.87,13.12,13.12-5.87,13.12-13.12,13.12ZM57.9,20.83l.05,3.47c4.46.6,7.14,3.28,7.74,7.74l3.47.05c.4-6.02-5.22-11.73-11.26-11.26ZM50.5,32.1h-3.85c.42,6.35,4.95,10.74,11.25,11.24v-3.85c-4.15-.26-7.14-3.24-7.4-7.39ZM58,15.1c-9.32,0-16.87,7.55-16.87,16.87s7.55,16.87,16.87,16.87,16.87-7.55,16.87-16.87-7.55-16.87-16.87-16.87ZM58.02,45.08c-7.24,0-13.12-5.87-13.12-13.12s5.88-13.12,13.12-13.12,13.12,5.87,13.12,13.12-5.87,13.12-13.12,13.12ZM57.9,20.83l.05,3.47c4.46.6,7.14,3.28,7.74,7.74l3.47.05c.4-6.02-5.22-11.73-11.26-11.26ZM50.5,32.1h-3.85c.42,6.35,4.95,10.74,11.25,11.24v-3.85c-4.15-.26-7.14-3.24-7.4-7.39ZM89.36,37c1.06-1.21.55-8.08.22-9.96-.63-.98-6.65-1.47-8.07-1.69l-2.1-5.11c.9-2.3,5.29-5.54,3.83-8.05-.31-.53-5.88-5.87-6.31-5.96-1.43-.32-5.5,3.63-7.04,4.24l-5.26-2c-.3-1.55-.6-7.03-1.54-7.96-.59-.59-8.89-.68-9.77-.26-1.54.74-1.3,6.47-2.13,8.06l-4.78,2.24c-1.88-.58-5.41-4.55-7.2-4.33-1.07.13-6.74,5.72-6.93,6.77-.33,1.8,3.63,5.48,4.4,7.3l-2.58,5.03c-2.45.48-5.36.37-7.53,1.62-.46.6-.53,8.88-.14,9.7.74,1.54,6.57,1.45,8.18,2.19.19,1.35,1.58,3.31,1.79,4.4.37,1.9-4.41,5.59-4.11,7.57.14.9,5.97,6.74,6.88,6.88,1.69.26,5.21-3.62,6.97-4.17l4.85,1.73c.95.71.67,7,2.14,8.15.65.46,8.92.55,9.7.15,1.25-.63,1.3-6.47,1.93-7.92l4.73-2.31c2.07.55,5.57,4.72,7.5,4.36.88-.16,6.43-5.66,6.58-6.46.55-2.84-3.89-5.71-4.14-7.44-.04-.25,1.73-4.47,1.88-4.67.99-1.35,6.86-.76,8.06-2.14ZM79.31,50.27l-2.94,2.93c-1.06,0-4.37-3.43-5.72-3.79-1.85-.49-2.28.6-3.61,1.15-1.36.55-4.78,1.36-5.44,2.3-.94,1.33-.93,6.77-1.57,7.23l-4.04.17c-.43-.07-.97-6.22-1.34-7.14-.49-1.17-3.53-1.7-4.83-2.21-1.04-.4-2.41-1.55-3.34-1.61-2.1-.13-4.74,3.08-6.69,3.91-.87-.39-3.18-2.4-2.95-3.28.28-1.04,3.24-3.76,3.66-5.16.62-2.06-.66-2.67-1.3-4.35-.39-1.01-1.27-4.36-1.85-4.84l-7.58-1.39c.2-1.06-.55-4.08.59-4.5,1.92-.72,6.35-.19,7.42-2.07.01-2.03,2.87-5.81,2.92-7.32.07-2.03-3.24-4.66-3.9-6.68.4-.87,2.29-3.11,3.18-2.85,1.51.43,4.77,4.28,6.41,4.03l8.02-3.61,1.4-7.21,4.56-.02c.2,1.8.28,4.38.79,6.07.7,2.35,2.92,2.09,4.83,2.9,1.39.59,2.55,1.6,4.06,1.89l6.32-4.1,2.83,2.73c.44.97-4.57,5.45-3.93,7.05,1.52,1.61,2.2,6.39,3.36,7.57,1.23,1.26,5.57,1.32,7.41,1.56l.02,4.37c-.07.4-5.85.92-6.79,1.35-1.45.65-2.89,6.9-4.11,8.53l4.15,6.39ZM58,15.1c-9.32,0-16.87,7.55-16.87,16.87s7.55,16.87,16.87,16.87,16.87-7.55,16.87-16.87-7.55-16.87-16.87-16.87ZM58.02,45.08c-7.24,0-13.12-5.87-13.12-13.12s5.88-13.12,13.12-13.12,13.12,5.87,13.12,13.12-5.87,13.12-13.12,13.12ZM57.9,20.83l.05,3.47c4.46.6,7.14,3.28,7.74,7.74l3.47.05c.4-6.02-5.22-11.73-11.26-11.26ZM50.5,32.1h-3.85c.42,6.35,4.95,10.74,11.25,11.24v-3.85c-4.15-.26-7.14-3.24-7.4-7.39ZM57.88,39.49c-4.14-.26-7.12-3.24-7.39-7.39h-3.85c.42,6.35,4.95,10.74,11.25,11.24v-3.85ZM57.9,20.83l.05,3.47c4.46.6,7.14,3.28,7.74,7.74l3.47.05c.4-6.02-5.22-11.73-11.26-11.26ZM57.9,20.83l.05,3.47c4.46.6,7.14,3.28,7.74,7.74l3.47.05c.4-6.02-5.22-11.73-11.26-11.26ZM50.5,32.1h-3.85c.42,6.35,4.95,10.74,11.25,11.24v-3.85c-4.15-.26-7.14-3.24-7.4-7.39ZM58,15.1c-9.32,0-16.87,7.55-16.87,16.87s7.55,16.87,16.87,16.87,16.87-7.55,16.87-16.87-7.55-16.87-16.87-16.87ZM58.02,45.08c-7.24,0-13.12-5.87-13.12-13.12s5.88-13.12,13.12-13.12,13.12,5.87,13.12,13.12-5.87,13.12-13.12,13.12ZM57.9,20.83l.05,3.47c4.46.6,7.14,3.28,7.74,7.74l3.47.05c.4-6.02-5.22-11.73-11.26-11.26ZM50.5,32.1h-3.85c.42,6.35,4.95,10.74,11.25,11.24v-3.85c-4.15-.26-7.14-3.24-7.4-7.39ZM57.88,39.49c-4.14-.26-7.12-3.24-7.39-7.39h-3.85c.42,6.35,4.95,10.74,11.25,11.24v-3.85ZM57.9,20.83l.05,3.47c4.46.6,7.14,3.28,7.74,7.74l3.47.05c.4-6.02-5.22-11.73-11.26-11.26ZM57.9,20.83l.05,3.47c4.46.6,7.14,3.28,7.74,7.74l3.47.05c.4-6.02-5.22-11.73-11.26-11.26ZM50.5,32.1h-3.85c.42,6.35,4.95,10.74,11.25,11.24v-3.85c-4.15-.26-7.14-3.24-7.4-7.39ZM58,15.1c-9.32,0-16.87,7.55-16.87,16.87s7.55,16.87,16.87,16.87,16.87-7.55,16.87-16.87-7.55-16.87-16.87-16.87ZM58.02,45.08c-7.24,0-13.12-5.87-13.12-13.12s5.88-13.12,13.12-13.12,13.12,5.87,13.12,13.12-5.87,13.12-13.12,13.12ZM57.9,20.83l.05,3.47c4.46.6,7.14,3.28,7.74,7.74l3.47.05c.4-6.02-5.22-11.73-11.26-11.26ZM50.5,32.1h-3.85c.42,6.35,4.95,10.74,11.25,11.24v-3.85c-4.15-.26-7.14-3.24-7.4-7.39ZM57.88,39.49c-4.14-.26-7.12-3.24-7.39-7.39h-3.85c.42,6.35,4.95,10.74,11.25,11.24v-3.85ZM57.9,20.83l.05,3.47c4.46.6,7.14,3.28,7.74,7.74l3.47.05c.4-6.02-5.22-11.73-11.26-11.26ZM57.9,20.83l.05,3.47c4.46.6,7.14,3.28,7.74,7.74l3.47.05c.4-6.02-5.22-11.73-11.26-11.26ZM57.88,39.49c-4.14-.26-7.12-3.24-7.39-7.39h-3.85c.42,6.35,4.95,10.74,11.25,11.24v-3.85ZM57.88,39.49c-4.14-.26-7.12-3.24-7.39-7.39h-3.85c.42,6.35,4.95,10.74,11.25,11.24v-3.85ZM57.9,20.83l.05,3.47c4.46.6,7.14,3.28,7.74,7.74l3.47.05c.4-6.02-5.22-11.73-11.26-11.26ZM57.9,20.83l.05,3.47c4.46.6,7.14,3.28,7.74,7.74l3.47.05c.4-6.02-5.22-11.73-11.26-11.26ZM57.88,39.49c-4.14-.26-7.12-3.24-7.39-7.39h-3.85c.42,6.35,4.95,10.74,11.25,11.24v-3.85ZM57.88,39.49c-4.14-.26-7.12-3.24-7.39-7.39h-3.85c.42,6.35,4.95,10.74,11.25,11.24v-3.85ZM57.9,20.83l.05,3.47c4.46.6,7.14,3.28,7.74,7.74l3.47.05c.4-6.02-5.22-11.73-11.26-11.26ZM57.9,20.83l.05,3.47c4.46.6,7.14,3.28,7.74,7.74l3.47.05c.4-6.02-5.22-11.73-11.26-11.26ZM50.5,32.1h-3.85c.42,6.35,4.95,10.74,11.25,11.24v-3.85c-4.15-.26-7.14-3.24-7.4-7.39ZM58,15.1c-9.32,0-16.87,7.55-16.87,16.87s7.55,16.87,16.87,16.87,16.87-7.55,16.87-16.87-7.55-16.87-16.87-16.87ZM58.02,45.08c-7.24,0-13.12-5.87-13.12-13.12s5.88-13.12,13.12-13.12,13.12,5.87,13.12,13.12-5.87,13.12-13.12,13.12ZM57.9,20.83l.05,3.47c4.46.6,7.14,3.28,7.74,7.74l3.47.05c.4-6.02-5.22-11.73-11.26-11.26ZM50.5,32.1h-3.85c.42,6.35,4.95,10.74,11.25,11.24v-3.85c-4.15-.26-7.14-3.24-7.4-7.39ZM57.88,39.49c-4.14-.26-7.12-3.24-7.39-7.39h-3.85c.42,6.35,4.95,10.74,11.25,11.24v-3.85ZM57.9,20.83l.05,3.47c4.46.6,7.14,3.28,7.74,7.74l3.47.05c.4-6.02-5.22-11.73-11.26-11.26ZM57.9,20.83l.05,3.47c4.46.6,7.14,3.28,7.74,7.74l3.47.05c.4-6.02-5.22-11.73-11.26-11.26ZM57.88,39.49c-4.14-.26-7.12-3.24-7.39-7.39h-3.85c.42,6.35,4.95,10.74,11.25,11.24v-3.85ZM57.88,39.49c-4.14-.26-7.12-3.24-7.39-7.39h-3.85c.42,6.35,4.95,10.74,11.25,11.24v-3.85ZM57.9,20.83l.05,3.47c4.46.6,7.14,3.28,7.74,7.74l3.47.05c.4-6.02-5.22-11.73-11.26-11.26ZM57.9,20.83l.05,3.47c4.46.6,7.14,3.28,7.74,7.74l3.47.05c.4-6.02-5.22-11.73-11.26-11.26ZM57.88,39.49c-4.14-.26-7.12-3.24-7.39-7.39h-3.85c.42,6.35,4.95,10.74,11.25,11.24v-3.85ZM57.88,39.49c-4.14-.26-7.12-3.24-7.39-7.39h-3.85c.42,6.35,4.95,10.74,11.25,11.24v-3.85ZM57.9,20.83l.05,3.47c4.46.6,7.14,3.28,7.74,7.74l3.47.05c.4-6.02-5.22-11.73-11.26-11.26ZM57.9,20.83l.05,3.47c4.46.6,7.14,3.28,7.74,7.74l3.47.05c.4-6.02-5.22-11.73-11.26-11.26ZM50.5,32.1h-3.85c.42,6.35,4.95,10.74,11.25,11.24v-3.85c-4.15-.26-7.14-3.24-7.4-7.39ZM58,15.1c-9.32,0-16.87,7.55-16.87,16.87s7.55,16.87,16.87,16.87,16.87-7.55,16.87-16.87-7.55-16.87-16.87-16.87ZM58.02,45.08c-7.24,0-13.12-5.87-13.12-13.12s5.88-13.12,13.12-13.12,13.12,5.87,13.12,13.12-5.87,13.12-13.12,13.12ZM57.9,20.83l.05,3.47c4.46.6,7.14,3.28,7.74,7.74l3.47.05c.4-6.02-5.22-11.73-11.26-11.26ZM50.5,32.1h-3.85c.42,6.35,4.95,10.74,11.25,11.24v-3.85c-4.15-.26-7.14-3.24-7.4-7.39ZM57.88,39.49c-4.14-.26-7.12-3.24-7.39-7.39h-3.85c.42,6.35,4.95,10.74,11.25,11.24v-3.85ZM57.9,20.83l.05,3.47c4.46.6,7.14,3.28,7.74,7.74l3.47.05c.4-6.02-5.22-11.73-11.26-11.26ZM57.9,20.83l.05,3.47c4.46.6,7.14,3.28,7.74,7.74l3.47.05c.4-6.02-5.22-11.73-11.26-11.26ZM57.88,39.49c-4.14-.26-7.12-3.24-7.39-7.39h-3.85c.42,6.35,4.95,10.74,11.25,11.24v-3.85ZM43.12,61.97v3.88h3.53v-3.88h-3.53ZM46.8,69.7l-.15,3.54h3.87v-3.87c-.87.13-3.25-.33-3.72.33ZM50.51,77.1v3.53h3.88v-3.53h-3.88Z"/>
      <path class="cls-1" d="M89.36,37c1.06-1.21.55-8.08.22-9.96-.63-.98-6.65-1.47-8.07-1.69l-2.1-5.11c.9-2.3,5.29-5.54,3.83-8.05-.31-.53-5.88-5.87-6.31-5.96-1.43-.32-5.5,3.63-7.04,4.24l-5.26-2c-.3-1.55-.6-7.03-1.54-7.96-.59-.59-8.89-.68-9.77-.26-1.54.74-1.3,6.47-2.13,8.06l-4.78,2.24c-1.88-.58-5.41-4.55-7.2-4.33-1.07.13-6.74,5.72-6.93,6.77-.33,1.8,3.63,5.48,4.4,7.3l-2.58,5.03c-2.45.48-5.36.37-7.53,1.62-.46.6-.53,8.88-.14,9.7.74,1.54,6.57,1.45,8.18,2.19.19,1.35,1.58,3.31,1.79,4.4.37,1.9-4.41,5.59-4.11,7.57.14.9,5.97,6.74,6.88,6.88,1.69.26,5.21-3.62,6.97-4.17l4.85,1.73c.95.71.67,7,2.14,8.15.65.46,8.92.55,9.7.15,1.25-.63,1.3-6.47,1.93-7.92l4.73-2.31c2.07.55,5.57,4.72,7.5,4.36.88-.16,6.43-5.66,6.58-6.46.55-2.84-3.89-5.71-4.14-7.44-.04-.25,1.73-4.47,1.88-4.67.99-1.35,6.86-.76,8.06-2.14ZM79.31,50.27l-2.94,2.93c-1.06,0-4.37-3.43-5.72-3.79-1.85-.49-2.28.6-3.61,1.15-1.36.55-4.78,1.36-5.44,2.3-.94,1.33-.93,6.77-1.57,7.23l-4.04.17c-.43-.07-.97-6.22-1.34-7.14-.49-1.17-3.53-1.7-4.83-2.21-1.04-.4-2.41-1.55-3.34-1.61-2.1-.13-4.74,3.08-6.69,3.91-.87-.39-3.18-2.4-2.95-3.28.28-1.04,3.24-3.76,3.66-5.16.62-2.06-.66-2.67-1.3-4.35-.39-1.01-1.27-4.36-1.85-4.84l-7.58-1.39c.2-1.06-.55-4.08.59-4.5,1.92-.72,6.35-.19,7.42-2.07.01-2.03,2.87-5.81,2.92-7.32.07-2.03-3.24-4.66-3.9-6.68.4-.87,2.29-3.11,3.18-2.85,1.51.43,4.77,4.28,6.41,4.03l8.02-3.61,1.4-7.21,4.56-.02c.2,1.8.28,4.38.79,6.07.7,2.35,2.92,2.09,4.83,2.9,1.39.59,2.55,1.6,4.06,1.89l6.32-4.1,2.83,2.73c.44.97-4.57,5.45-3.93,7.05,1.52,1.61,2.2,6.39,3.36,7.57,1.23,1.26,5.57,1.32,7.41,1.56l.02,4.37c-.07.4-5.85.92-6.79,1.35-1.45.65-2.89,6.9-4.11,8.53l4.15,6.39Z"/>
      <path class="cls-1" d="M4.97,56.35c-4.44-.74-6.09-5.71-4.2-9.47,1.9-3.78,7.95-10.01,9.12-13.4.19-.56-.28-5.17-.19-6.5C11.15,6.85,30.77-.46,48.41.08v3.87c-11.58-.22-25.78,2.36-31.84,13.36-3.05,5.54-3.35,10.93-2.89,17.13l-9.93,15.08c-1.04,5.71,9.31,1.07,10.71,4.02.46.97-.35,7.88-.13,9.98.54,5.2,2.67,6.85,7.87,6.93,1.96.03,8.09-1.59,9.14-.36.33.38.49,1.24.38,1.76l-4.77,14.41h36.22c-1.04-9.74-.2-20.08,4.39-28.8l3.02,1.58c-.79,2.37-1.74,4.68-2.39,7.1-1.92,7.2-2.16,14.74-.77,22.06l-1.34,1.86H23.68c-.84-.4-1.49-1.19-1.3-2.17l4.57-13.94h-7.91c-.18,0-3.14-.88-3.53-1.04-5.14-2.11-5.61-11.85-4.73-16.54-1.78-.21-4.1.28-5.8,0Z"/>
      <path class="cls-1" d="M50.52,69.36v3.87s-3.87,0-3.87,0l.16-3.54c.46-.67,2.85-.2,3.72-.33Z"/>
      <rect class="cls-1" x="43.12" y="61.97" width="3.53" height="3.88"/>
      <rect class="cls-1" x="50.51" y="77.1" width="3.88" height="3.53"/>
      <path class="cls-1" d="M58,15.1c-9.32,0-16.87,7.55-16.87,16.87s7.55,16.87,16.87,16.87,16.87-7.55,16.87-16.87-7.55-16.87-16.87-16.87ZM58.02,45.08c-7.24,0-13.12-5.87-13.12-13.12s5.88-13.12,13.12-13.12,13.12,5.87,13.12,13.12-5.87,13.12-13.12,13.12Z"/>
      <path class="cls-1" d="M69.16,32.09l-3.47-.05c-.6-4.45-3.28-7.14-7.74-7.74l-.05-3.47c6.04-.47,11.66,5.24,11.26,11.26Z"/>
      <path class="cls-1" d="M57.9,43.34c-6.3-.5-10.83-4.89-11.25-11.25h3.85c.26,4.16,3.25,7.14,7.39,7.4v3.85Z"/>
    </g>
  </g>
</svg>