<?xml version="1.0" encoding="UTF-8"?>
<svg id="Capa_2" data-name="Capa 2" xmlns="http://www.w3.org/2000/svg" viewBox="0 0 156.57 134.3">
  <defs>
    <style>
      .cls-1 {
        fill: #181c36;
      }

      .cls-2 {
        fill: #0078d3;
      }
    </style>
  </defs>
  <g id="Capa_1-2" data-name="Capa 1">
    <g>
      <g>
        <path class="cls-1" d="M41.17,36.76c0,3.54-1.06,6.58-3.18,9.12s-5.19,4.38-9.21,5.53v.23c9.36,1.2,14.04,5.7,14.04,13.52,0,5.31-2.07,9.49-6.2,12.54-4.13,3.05-9.87,4.57-17.21,4.57-3.02,0-5.81-.22-8.38-.66-2.57-.44-5.35-1.25-8.34-2.42v-12.81c2.46,1.28,4.96,2.22,7.5,2.83,2.54.61,4.89.92,7.04.92,3.32,0,5.75-.47,7.27-1.43,1.52-.95,2.28-2.44,2.28-4.47,0-1.56-.4-2.77-1.19-3.61-.79-.85-2.07-1.48-3.84-1.91s-4.07-.64-6.91-.64h-3.45v-11.6h3.53c7.7,0,11.55-2,11.55-6.02,0-1.51-.57-2.63-1.71-3.36-1.14-.73-2.67-1.09-4.58-1.09-3.58,0-7.29,1.22-11.13,3.67l-6.29-10.31c2.97-2.08,6-3.57,9.11-4.45,3.11-.88,6.67-1.33,10.68-1.33,5.81,0,10.36,1.17,13.66,3.52s4.95,5.57,4.95,9.69Z"/>
        <path class="cls-1" d="M0,89.5v-3.98h46.04v3.98H0Z"/>
      </g>
      <g>
        <path class="cls-2" d="M155.7,2.46l.88,111.1c0,.52-.16,1.04-.46,1.47-1.62,2.28-3.84,2.55-6.6,2.9-11.93,1.53-34.53-2.75-44.35-.11-1.28.34-8.79,13.65-18.63,15.69-35.56,7.37-48.7-38.6-17.85-53.79.83-.41,1.33-1.26,1.34-2.18l.32-48.49c0-.64.26-1.25.7-1.71L96.92.75c.47-.48,1.11-.75,1.77-.75h54.53c1.36,0,2.46,1.1,2.47,2.46ZM149.63,112.49c1.37,0,2.47-1.11,2.47-2.47v-40.21c0-20.38-.06-40.77,0-61.15v-1.13c0-.37,0-.75-.11-1.1-.16-.47-.5-.85-.84-1.22-2.5-2.68-7.9-1.64-11.35-1.64h-34.04c-.68,0-1.36.26-1.81.78-4.39,5.19.03,20.41-2.46,25.68-.39.82-1.23,1.34-2.14,1.36l-21.63.67c-1.34.04-2.4,1.14-2.4,2.47v41.33c0,1.42,1.2,2.53,2.62,2.46,17.5-.75,30.6,14.3,29.76,31.52-.07,1.43,1.04,2.63,2.47,2.63h39.46ZM96.63,24.19l-.47-9.49c-.11-2.17-2.76-3.16-4.26-1.58l-9.02,9.48c-1.5,1.57-.38,4.18,1.79,4.18h9.5c1.42.02,2.55-1.17,2.48-2.58ZM102.04,106.38c0-12.62-10.23-22.86-22.86-22.86s-22.86,10.23-22.86,22.86,10.23,22.86,22.86,22.86,22.86-10.23,22.86-22.86Z"/>
        <path class="cls-2" d="M125.32,40.18h0c0,1.48-1.2,2.68-2.68,2.68h-32.81c-.72,0-1.4-.29-1.91-.8h0c-1.03-1.04-1.03-2.72,0-3.76h0c.5-.51,1.19-.8,1.91-.8h32.81c1.48,0,2.68,1.2,2.68,2.68Z"/>
        <path class="cls-2" d="M125.32,61.6h0c0,1.48-1.2,2.68-2.68,2.68h-32.81c-.72,0-1.4-.29-1.91-.8h0c-1.03-1.04-1.03-2.72,0-3.76h0c.5-.51,1.19-.8,1.91-.8h32.81c1.48,0,2.68,1.2,2.68,2.68Z"/>
        <path class="cls-2" d="M150.31,50.01l-11.85,15.93-7.96-6.6c-.92-.77-1.15-2.09-.52-3.12h0c.81-1.34,2.66-1.56,3.77-.47l3.18,3.14c4.18-3.33,6.91-9.85,13.38-8.89Z"/>
        <path class="cls-2" d="M150.31,28.58l-11.79,15.98-8.02-6.65c-.92-.77-1.15-2.09-.52-3.12h0c.81-1.34,2.66-1.56,3.77-.47l3.18,3.14c4.18-3.33,6.91-9.85,13.38-8.89Z"/>
        <path class="cls-2" d="M150.31,71.43l-11.85,15.93-8.5-7.05c-.87-.72-1.26-1.95-.78-2.97,1.33-2.86,6.9,2.59,7.77,2.58,2.51-.04,7.66-10.91,13.35-8.49Z"/>
        <rect class="cls-2" x="100.32" y="80.35" width="25" height="5.36" rx="2.68" ry="2.68"/>
        <path class="cls-2" d="M96.74,94.64c3.87,4.22-15.99,18.11-17.09,23.33-8.08,1.24-27.46-27.28-1.89-7.4l18.98-15.93Z"/>
      </g>
    </g>
  </g>
</svg>