<?xml version="1.0" encoding="UTF-8"?>
<svg id="Capa_2" data-name="Capa 2" xmlns="http://www.w3.org/2000/svg" viewBox="0 0 182.31 120.8">
  <defs>
    <style>
      .cls-1 {
        fill: #181c36;
      }

      .cls-2 {
        fill: #0078d3;
      }
    </style>
  </defs>
  <g id="Capa_1-2" data-name="Capa 1">
    <g>
      <g>
        <path class="cls-1" d="M36.14,82.92h-15.38v-30.23c0-3.67.08-7.03.23-10.08-.95,1.17-2.12,2.4-3.53,3.67l-6.37,5.35-7.87-9.84,19.26-15.98h13.66v57.11Z"/>
        <path class="cls-1" d="M0,90.93v-3.98h46.04v3.98H0Z"/>
      </g>
      <g>
        <path class="cls-2" d="M81.53,8.49c21.17-.02,42.34-.04,63.51-.06,1.28,0,2.59,0,3.77.5,4.09,1.72,3.34,6.07,3.34,9.56,0,4.89,0,9.78,0,14.67,0,9.78,0,19.55,0,29.33,0,15.45.01,30.9.02,46.34,1.86.22,4.25.16,4.96-1.58.21-.52.22-1.1.22-1.66,0-19.54,0-39.08,0-58.62,0-6.47,0-12.94,0-19.41,1.09-.68,2.25-1.17,2.98.37.37.77.33,1.66.28,2.51-.99,18.99.65,37.95.7,56.94.02,6.01-.27,11.98-.65,17.98-.5,5.81-3.27,7.47-8.97,6.82.37,4.49-1.03,7.97-5.89,8.49-4.63,0-9.26,0-13.9,0-9.56,0-19.12,0-28.68,0-4.69,0-9.39,0-14.08,0s-9.31.37-13.82-.11c-2.35-.25-4.84-1.34-5.76-3.51-.47-1.12-.47-2.37-.46-3.58.05-5.15.1-10.3.15-15.44,0-.29,0-.59.12-.86.4-.95,1.93-.84,2.57-.04s.66,1.93.65,2.96c-.04,2.83-.08,5.66-.12,8.49-.03,1.95-.92,6.06.41,7.67,1.18,1.43,3.3,1.37,5.24,1.16.84-.09,42.64.86,57.11.52,3.21-.09,6.43-.25,9.63-.55,2.41-.22,3.51-.87,3.54-3.54,0-4.5,0-8.99,0-13.49,0-10.19,0-20.39,0-30.58,0-10.97,0-21.95,0-32.92v-10.97c0-2.96.19-5.92.04-8.88-.06-1.19.29-2.99-.33-4.06-.97-1.66-3.5-1.17-5.09-1.16-4.89.02-9.78.03-14.67.05l-29.34.09c-7.92.02-15.84.05-23.76.07-.7,0-1.46.02-2,.46-.72.58-.78,1.64-.78,2.57.03,24.25.05,48.5.08,72.75,0,.94-.02,1.95-.55,2.73-.51.74-1.63,1.1-2.36.45-1.1-.99-.45-4.44-.45-5.75,0-2.45,0-4.89,0-7.34,0-4.89,0-9.78,0-14.68,0-9.78,0-19.57,0-29.35,0-6.07,0-12.13,0-18.2,0-2.31.2-5,2.11-6.28,1.26-.84,2.88-.79,4.4-.79.73,0,1.56-.06,2.04-.62.63-.72.32-1.82.34-2.78.03-1.98,1.62-3.66,3.45-4.4S85.42,0,87.4,0c4.71,0,9.42,0,14.13.01,17.31.02,34.62.03,51.94.05,1.42,0,2.9.02,4.14.71,2.4,1.33,2.86,4.41,3.08,6.88.22,2.48.27,4.97.2,7.46-.05,1.71.25,4.65-.99,6.05-.6.68-1.86.82-2.34.05-.22-.35-.22-.79-.22-1.21.02-2.71.03-5.43.04-8.14,0-2.02.72-5.55-.51-7.3-.82-1.17-2.48-1.27-3.91-1.27-22.68.08-45.36.16-68.04.24-.85,0-1.77.02-2.47.51-1.31.91-1.19,2.85-.91,4.45Z"/>
        <path class="cls-2" d="M167.58,35.45c1.17-.34,10.71-.3,12.06,0,1.39.31,2.47,1.59,2.67,2.99v50.85c-.18,1.11-5.33,11.53-6.17,12.68-4.41,6.02-9.01-9.62-10.74-12.21l-.05-51.37c-.09-1.01,1.38-2.69,2.24-2.94ZM179.03,38.65h-10.37v7.54h10.37v-7.54ZM168.66,49.49v38.18h10.37v-38.18h-10.37ZM178.09,90.97h-8.48c1.27,2.3,2.23,4.8,3.54,7.08.29.51-.05,1.15.93.93l4.01-8.02Z"/>
        <path class="cls-2" d="M100.21,91.56c1.77,1.7-3.61,5.39-4.04,6.81-.86,2.89,1.12,9.61-1.06,11.66-1.97,1.85-13,1.88-14.86-.17-1.79-1.97-1.81-13.11.29-14.87,1.42-1.19,9.21-.78,11.55-.75.91.01,2.02.58,2.72.42,1.55-.35,2.67-5.14,5.4-3.11ZM91.83,97.57h-9.43l4.06,5.64c1.05.22,4.44-4.75,5.37-5.64ZM92.78,102.28l-1.4.71-3.78,4.94h5.18s0-5.65,0-5.65ZM84.76,107.93c.54-.52-1.48-3.58-2.35-3.77l.2,3.33,2.15.44Z"/>
        <rect class="cls-2" x="79.28" y="64.1" width="62.09" height="3.3"/>
        <rect class="cls-2" x="79.2" y="84.37" width="62.16" height="3.33"/>
        <rect class="cls-2" x="79.26" y="73.98" width="62.09" height="3.32"/>
        <rect class="cls-2" x="100.76" y="100.84" width="40.59" height="3.33"/>
        <path class="cls-2" d="M123.65,26.39h16.97c.96,0,.96,3.29,0,3.3-5.16.02-10.32.02-15.47.04-.63,0-1.28,0-1.83-.3-1.19-.65-.89-2.62.34-3.04Z"/>
        <path class="cls-2" d="M123.65,36.98h16.97c.96,0,.96,3.29,0,3.3-5.16.02-10.32.02-15.47.04-.63,0-1.28,0-1.83-.3-1.19-.65-.89-2.62.34-3.04Z"/>
        <path class="cls-2" d="M123.65,47.13h16.97c.96,0,.96,3.3,0,3.3h-16.97c-1.1,0-1.69-2.72,0-3.3Z"/>
        <path class="cls-2" d="M99.19,50.24c.03.06.07.11.12.16.32.36.84.44,1.32.48,1.41.12,2.84.38,4.26.26,2.62-.22,2.71-3.26,2.67-5.29-.06-2.82-1.18-5.62-3.38-7.44.29.24,2.07-2.84,2.2-3.17.44-1.11.63-2.3.55-3.49-.17-2.26-1.31-4.42-3.05-5.87-3.02-2.53-7.5-2.18-10.35.43-3.62,3.31-2.97,8.61.18,12.03-.37-.4-2.67,3.91-2.81,4.31-.6,1.84-.69,3.78-.55,5.7.07.93,1.11,3.41,2.46,2.39.39-.29.57-.79.67-1.26.51-2.26-.05-4.78,1.03-6.83,1.26-2.38,4.61-3.27,6.95-2.01s3.14,4.42,2.64,6.96c-1.58.07-3.17.12-4.75.21-.11.73-.57,1.73-.16,2.42Z"/>
      </g>
    </g>
  </g>
</svg>