<?xml version="1.0" encoding="UTF-8"?>
<svg id="Capa_2" data-name="Capa 2" xmlns="http://www.w3.org/2000/svg" viewBox="0 0 193.02 124.18">
  <defs>
    <style>
      .cls-1 {
        fill: #181c36;
      }

      .cls-2 {
        fill: #0078d3;
      }
    </style>
  </defs>
  <g id="Capa_1-2" data-name="Capa 1">
    <g>
      <g>
        <path class="cls-1" d="M44.85,76.62h-6.18v11.05h-14.96v-11.05H1.34v-11.33L24.67,30.56h14v34.53h6.18v11.52ZM23.71,65.09v-6.64c0-1.25.04-2.94.13-5.06.09-2.12.16-3.24.21-3.34h-.42c-.87,2.01-1.85,3.88-2.95,5.62l-6.22,9.41h9.25Z"/>
        <path class="cls-1" d="M0,95.68v-3.98h46.04v3.98H0Z"/>
      </g>
      <g>
        <path class="cls-2" d="M100.19.05v2.95h24.41V.05h-24.41ZM133.61.12c-1.16-.22-4.36-.33-3.91,1.52.42,1.65,6.07,1.69,3.91-1.52ZM110.57,58.63h-13.82c-.55,0-1.56,2.63,1.43,2.93,2.36.23,9.81.31,11.96-.11.8-.16,1.12-.45,1.28-1.27.22-.5-.47-1.45-.85-1.55ZM95.46,72.79v2.93h29.15v-2.93h-29.15ZM127.3,58.99h-8.73c-1.04.69-.9,2.2.18,2.73.73.35,7.11.32,8.02.02,1.72-.57,1.1-2.75.53-2.75ZM134.68,42.52c-1.19-3.37-4.06-6.88-7.56-7.9.24-1.24,1.51-1.77,2.14-3.13,2.44-5.25-.9-11.32-6.69-11.78-8.52-.66-12.47,9.31-6,14.73-3.68,2.13-7.16,5.27-8.26,9.56-.55,2.2-1.39,4.55,1.51,4.83,7.59.73,16.33-.6,24.05-.01,2.79-.22,1.44-4.48.81-6.3ZM116.22,27.94c0-3.01,2.44-5.46,5.46-5.46s5.47,2.45,5.47,5.46-2.45,5.47-5.47,5.47-5.46-2.45-5.46-5.47ZM110.75,45.9c2.76-12.27,19.63-13.01,21.83,0h-21.83ZM134.68,42.52c-1.19-3.37-4.06-6.88-7.56-7.9.24-1.24,1.51-1.77,2.14-3.13,2.44-5.25-.9-11.32-6.69-11.78-8.52-.66-12.47,9.31-6,14.73-3.68,2.13-7.16,5.27-8.26,9.56-.55,2.2-1.39,4.55,1.51,4.83,7.59.73,16.33-.6,24.05-.01,2.79-.22,1.44-4.48.81-6.3ZM116.22,27.94c0-3.01,2.44-5.46,5.46-5.46s5.47,2.45,5.47,5.46-2.45,5.47-5.47,5.47-5.46-2.45-5.46-5.47ZM110.75,45.9c2.76-12.27,19.63-13.01,21.83,0h-21.83ZM127.3,58.99h-8.73c-1.04.69-.9,2.2.18,2.73.73.35,7.11.32,8.02.02,1.72-.57,1.1-2.75.53-2.75ZM95.46,72.79v2.93h29.15v-2.93h-29.15ZM110.57,58.63h-13.82c-.55,0-1.56,2.63,1.43,2.93,2.36.23,9.81.31,11.96-.11.8-.16,1.12-.45,1.28-1.27.22-.5-.47-1.45-.85-1.55ZM110.57,58.63h-13.82c-.55,0-1.56,2.63,1.43,2.93,2.36.23,9.81.31,11.96-.11.8-.16,1.12-.45,1.28-1.27.22-.5-.47-1.45-.85-1.55ZM95.46,72.79v2.93h29.15v-2.93h-29.15ZM127.3,58.99h-8.73c-1.04.69-.9,2.2.18,2.73.73.35,7.11.32,8.02.02,1.72-.57,1.1-2.75.53-2.75ZM134.68,42.52c-1.19-3.37-4.06-6.88-7.56-7.9.24-1.24,1.51-1.77,2.14-3.13,2.44-5.25-.9-11.32-6.69-11.78-8.52-.66-12.47,9.31-6,14.73-3.68,2.13-7.16,5.27-8.26,9.56-.55,2.2-1.39,4.55,1.51,4.83,7.59.73,16.33-.6,24.05-.01,2.79-.22,1.44-4.48.81-6.3ZM116.22,27.94c0-3.01,2.44-5.46,5.46-5.46s5.47,2.45,5.47,5.46-2.45,5.47-5.47,5.47-5.46-2.45-5.46-5.47ZM110.75,45.9c2.76-12.27,19.63-13.01,21.83,0h-21.83ZM134.68,42.52c-1.19-3.37-4.06-6.88-7.56-7.9.24-1.24,1.51-1.77,2.14-3.13,2.44-5.25-.9-11.32-6.69-11.78-8.52-.66-12.47,9.31-6,14.73-3.68,2.13-7.16,5.27-8.26,9.56-.55,2.2-1.39,4.55,1.51,4.83,7.59.73,16.33-.6,24.05-.01,2.79-.22,1.44-4.48.81-6.3ZM116.22,27.94c0-3.01,2.44-5.46,5.46-5.46s5.47,2.45,5.47,5.46-2.45,5.47-5.47,5.47-5.46-2.45-5.46-5.47ZM110.75,45.9c2.76-12.27,19.63-13.01,21.83,0h-21.83ZM127.3,58.99h-8.73c-1.04.69-.9,2.2.18,2.73.73.35,7.11.32,8.02.02,1.72-.57,1.1-2.75.53-2.75ZM95.46,72.79v2.93h29.15v-2.93h-29.15ZM110.57,58.63h-13.82c-.55,0-1.56,2.63,1.43,2.93,2.36.23,9.81.31,11.96-.11.8-.16,1.12-.45,1.28-1.27.22-.5-.47-1.45-.85-1.55ZM110.57,58.63h-13.82c-.55,0-1.56,2.63,1.43,2.93,2.36.23,9.81.31,11.96-.11.8-.16,1.12-.45,1.28-1.27.22-.5-.47-1.45-.85-1.55ZM95.46,72.79v2.93h29.15v-2.93h-29.15ZM127.3,58.99h-8.73c-1.04.69-.9,2.2.18,2.73.73.35,7.11.32,8.02.02,1.72-.57,1.1-2.75.53-2.75ZM134.68,42.52c-1.19-3.37-4.06-6.88-7.56-7.9.24-1.24,1.51-1.77,2.14-3.13,2.44-5.25-.9-11.32-6.69-11.78-8.52-.66-12.47,9.31-6,14.73-3.68,2.13-7.16,5.27-8.26,9.56-.55,2.2-1.39,4.55,1.51,4.83,7.59.73,16.33-.6,24.05-.01,2.79-.22,1.44-4.48.81-6.3ZM116.22,27.94c0-3.01,2.44-5.46,5.46-5.46s5.47,2.45,5.47,5.46-2.45,5.47-5.47,5.47-5.46-2.45-5.46-5.47ZM110.75,45.9c2.76-12.27,19.63-13.01,21.83,0h-21.83ZM134.68,42.52c-1.19-3.37-4.06-6.88-7.56-7.9.24-1.24,1.51-1.77,2.14-3.13,2.44-5.25-.9-11.32-6.69-11.78-8.52-.66-12.47,9.31-6,14.73-3.68,2.13-7.16,5.27-8.26,9.56-.55,2.2-1.39,4.55,1.51,4.83,7.59.73,16.33-.6,24.05-.01,2.79-.22,1.44-4.48.81-6.3ZM116.22,27.94c0-3.01,2.44-5.46,5.46-5.46s5.47,2.45,5.47,5.46-2.45,5.47-5.47,5.47-5.46-2.45-5.46-5.47ZM110.75,45.9c2.76-12.27,19.63-13.01,21.83,0h-21.83ZM127.3,58.99h-8.73c-1.04.69-.9,2.2.18,2.73.73.35,7.11.32,8.02.02,1.72-.57,1.1-2.75.53-2.75ZM95.46,72.79v2.93h29.15v-2.93h-29.15ZM110.57,58.63h-13.82c-.55,0-1.56,2.63,1.43,2.93,2.36.23,9.81.31,11.96-.11.8-.16,1.12-.45,1.28-1.27.22-.5-.47-1.45-.85-1.55ZM110.57,58.63h-13.82c-.55,0-1.56,2.63,1.43,2.93,2.36.23,9.81.31,11.96-.11.8-.16,1.12-.45,1.28-1.27.22-.5-.47-1.45-.85-1.55ZM95.46,72.79v2.93h29.15v-2.93h-29.15ZM127.3,58.99h-8.73c-1.04.69-.9,2.2.18,2.73.73.35,7.11.32,8.02.02,1.72-.57,1.1-2.75.53-2.75ZM134.68,42.52c-1.19-3.37-4.06-6.88-7.56-7.9.24-1.24,1.51-1.77,2.14-3.13,2.44-5.25-.9-11.32-6.69-11.78-8.52-.66-12.47,9.31-6,14.73-3.68,2.13-7.16,5.27-8.26,9.56-.55,2.2-1.39,4.55,1.51,4.83,7.59.73,16.33-.6,24.05-.01,2.79-.22,1.44-4.48.81-6.3ZM116.22,27.94c0-3.01,2.44-5.46,5.46-5.46s5.47,2.45,5.47,5.46-2.45,5.47-5.47,5.47-5.46-2.45-5.46-5.47ZM110.75,45.9c2.76-12.27,19.63-13.01,21.83,0h-21.83ZM134.68,42.52c-1.19-3.37-4.06-6.88-7.56-7.9.24-1.24,1.51-1.77,2.14-3.13,2.44-5.25-.9-11.32-6.69-11.78-8.52-.66-12.47,9.31-6,14.73-3.68,2.13-7.16,5.27-8.26,9.56-.55,2.2-1.39,4.55,1.51,4.83,7.59.73,16.33-.6,24.05-.01,2.79-.22,1.44-4.48.81-6.3ZM116.22,27.94c0-3.01,2.44-5.46,5.46-5.46s5.47,2.45,5.47,5.46-2.45,5.47-5.47,5.47-5.46-2.45-5.46-5.47ZM110.75,45.9c2.76-12.27,19.63-13.01,21.83,0h-21.83ZM127.3,58.99h-8.73c-1.04.69-.9,2.2.18,2.73.73.35,7.11.32,8.02.02,1.72-.57,1.1-2.75.53-2.75ZM95.46,72.79v2.93h29.15v-2.93h-29.15ZM110.57,58.63h-13.82c-.55,0-1.56,2.63,1.43,2.93,2.36.23,9.81.31,11.96-.11.8-.16,1.12-.45,1.28-1.27.22-.5-.47-1.45-.85-1.55ZM110.57,58.63h-13.82c-.55,0-1.56,2.63,1.43,2.93,2.36.23,9.81.31,11.96-.11.8-.16,1.12-.45,1.28-1.27.22-.5-.47-1.45-.85-1.55ZM95.46,72.79v2.93h29.15v-2.93h-29.15ZM127.3,58.99h-8.73c-1.04.69-.9,2.2.18,2.73.73.35,7.11.32,8.02.02,1.72-.57,1.1-2.75.53-2.75ZM134.68,42.52c-1.19-3.37-4.06-6.88-7.56-7.9.24-1.24,1.51-1.77,2.14-3.13,2.44-5.25-.9-11.32-6.69-11.78-8.52-.66-12.47,9.31-6,14.73-3.68,2.13-7.16,5.27-8.26,9.56-.55,2.2-1.39,4.55,1.51,4.83,7.59.73,16.33-.6,24.05-.01,2.79-.22,1.44-4.48.81-6.3ZM116.22,27.94c0-3.01,2.44-5.46,5.46-5.46s5.47,2.45,5.47,5.46-2.45,5.47-5.47,5.47-5.46-2.45-5.46-5.47ZM110.75,45.9c2.76-12.27,19.63-13.01,21.83,0h-21.83ZM134.68,42.52c-1.19-3.37-4.06-6.88-7.56-7.9.24-1.24,1.51-1.77,2.14-3.13,2.44-5.25-.9-11.32-6.69-11.78-8.52-.66-12.47,9.31-6,14.73-3.68,2.13-7.16,5.27-8.26,9.56-.55,2.2-1.39,4.55,1.51,4.83,7.59.73,16.33-.6,24.05-.01,2.79-.22,1.44-4.48.81-6.3ZM116.22,27.94c0-3.01,2.44-5.46,5.46-5.46s5.47,2.45,5.47,5.46-2.45,5.47-5.47,5.47-5.46-2.45-5.46-5.47ZM110.75,45.9c2.76-12.27,19.63-13.01,21.83,0h-21.83ZM127.3,58.99h-8.73c-1.04.69-.9,2.2.18,2.73.73.35,7.11.32,8.02.02,1.72-.57,1.1-2.75.53-2.75ZM95.46,72.79v2.93h29.15v-2.93h-29.15ZM110.57,58.63h-13.82c-.55,0-1.56,2.63,1.43,2.93,2.36.23,9.81.31,11.96-.11.8-.16,1.12-.45,1.28-1.27.22-.5-.47-1.45-.85-1.55ZM110.57,58.63h-13.82c-.55,0-1.56,2.63,1.43,2.93,2.36.23,9.81.31,11.96-.11.8-.16,1.12-.45,1.28-1.27.22-.5-.47-1.45-.85-1.55ZM95.46,72.79v2.93h29.15v-2.93h-29.15ZM127.3,58.99h-8.73c-1.04.69-.9,2.2.18,2.73.73.35,7.11.32,8.02.02,1.72-.57,1.1-2.75.53-2.75ZM134.68,42.52c-1.19-3.37-4.06-6.88-7.56-7.9.24-1.24,1.51-1.77,2.14-3.13,2.44-5.25-.9-11.32-6.69-11.78-8.52-.66-12.47,9.31-6,14.73-3.68,2.13-7.16,5.27-8.26,9.56-.55,2.2-1.39,4.55,1.51,4.83,7.59.73,16.33-.6,24.05-.01,2.79-.22,1.44-4.48.81-6.3ZM116.22,27.94c0-3.01,2.44-5.46,5.46-5.46s5.47,2.45,5.47,5.46-2.45,5.47-5.47,5.47-5.46-2.45-5.46-5.47ZM110.75,45.9c2.76-12.27,19.63-13.01,21.83,0h-21.83ZM134.68,42.52c-1.19-3.37-4.06-6.88-7.56-7.9.24-1.24,1.51-1.77,2.14-3.13,2.44-5.25-.9-11.32-6.69-11.78-8.52-.66-12.47,9.31-6,14.73-3.68,2.13-7.16,5.27-8.26,9.56-.55,2.2-1.39,4.55,1.51,4.83,7.59.73,16.33-.6,24.05-.01,2.79-.22,1.44-4.48.81-6.3ZM116.22,27.94c0-3.01,2.44-5.46,5.46-5.46s5.47,2.45,5.47,5.46-2.45,5.47-5.47,5.47-5.46-2.45-5.46-5.47ZM110.75,45.9c2.76-12.27,19.63-13.01,21.83,0h-21.83ZM127.3,58.99h-8.73c-1.04.69-.9,2.2.18,2.73.73.35,7.11.32,8.02.02,1.72-.57,1.1-2.75.53-2.75ZM95.46,72.79v2.93h29.15v-2.93h-29.15ZM110.57,58.63h-13.82c-.55,0-1.56,2.63,1.43,2.93,2.36.23,9.81.31,11.96-.11.8-.16,1.12-.45,1.28-1.27.22-.5-.47-1.45-.85-1.55ZM110.57,58.63h-13.82c-.55,0-1.56,2.63,1.43,2.93,2.36.23,9.81.31,11.96-.11.8-.16,1.12-.45,1.28-1.27.22-.5-.47-1.45-.85-1.55ZM95.46,72.79v2.93h29.15v-2.93h-29.15ZM127.3,58.99h-8.73c-1.04.69-.9,2.2.18,2.73.73.35,7.11.32,8.02.02,1.72-.57,1.1-2.75.53-2.75ZM134.68,42.52c-1.19-3.37-4.06-6.88-7.56-7.9.24-1.24,1.51-1.77,2.14-3.13,2.44-5.25-.9-11.32-6.69-11.78-8.52-.66-12.47,9.31-6,14.73-3.68,2.13-7.16,5.27-8.26,9.56-.55,2.2-1.39,4.55,1.51,4.83,7.59.73,16.33-.6,24.05-.01,2.79-.22,1.44-4.48.81-6.3ZM116.22,27.94c0-3.01,2.44-5.46,5.46-5.46s5.47,2.45,5.47,5.46-2.45,5.47-5.47,5.47-5.46-2.45-5.46-5.47ZM110.75,45.9c2.76-12.27,19.63-13.01,21.83,0h-21.83ZM134.68,42.52c-1.19-3.37-4.06-6.88-7.56-7.9.24-1.24,1.51-1.77,2.14-3.13,2.44-5.25-.9-11.32-6.69-11.78-8.52-.66-12.47,9.31-6,14.73-3.68,2.13-7.16,5.27-8.26,9.56-.55,2.2-1.39,4.55,1.51,4.83,7.59.73,16.33-.6,24.05-.01,2.79-.22,1.44-4.48.81-6.3ZM116.22,27.94c0-3.01,2.44-5.46,5.46-5.46s5.47,2.45,5.47,5.46-2.45,5.47-5.47,5.47-5.46-2.45-5.46-5.47ZM110.75,45.9c2.76-12.27,19.63-13.01,21.83,0h-21.83ZM127.3,58.99h-8.73c-1.04.69-.9,2.2.18,2.73.73.35,7.11.32,8.02.02,1.72-.57,1.1-2.75.53-2.75ZM95.46,72.79v2.93h29.15v-2.93h-29.15ZM110.57,58.63h-13.82c-.55,0-1.56,2.63,1.43,2.93,2.36.23,9.81.31,11.96-.11.8-.16,1.12-.45,1.28-1.27.22-.5-.47-1.45-.85-1.55ZM110.57,58.63h-13.82c-.55,0-1.56,2.63,1.43,2.93,2.36.23,9.81.31,11.96-.11.8-.16,1.12-.45,1.28-1.27.22-.5-.47-1.45-.85-1.55ZM95.46,72.79v2.93h29.15v-2.93h-29.15ZM127.3,58.99h-8.73c-1.04.69-.9,2.2.18,2.73.73.35,7.11.32,8.02.02,1.72-.57,1.1-2.75.53-2.75ZM134.68,42.52c-1.19-3.37-4.06-6.88-7.56-7.9.24-1.24,1.51-1.77,2.14-3.13,2.44-5.25-.9-11.32-6.69-11.78-8.52-.66-12.47,9.31-6,14.73-3.68,2.13-7.16,5.27-8.26,9.56-.55,2.2-1.39,4.55,1.51,4.83,7.59.73,16.33-.6,24.05-.01,2.79-.22,1.44-4.48.81-6.3ZM116.22,27.94c0-3.01,2.44-5.46,5.46-5.46s5.47,2.45,5.47,5.46-2.45,5.47-5.47,5.47-5.46-2.45-5.46-5.47ZM110.75,45.9c2.76-12.27,19.63-13.01,21.83,0h-21.83ZM134.68,42.52c-1.19-3.37-4.06-6.88-7.56-7.9.24-1.24,1.51-1.77,2.14-3.13,2.44-5.25-.9-11.32-6.69-11.78-8.52-.66-12.47,9.31-6,14.73-3.68,2.13-7.16,5.27-8.26,9.56-.55,2.2-1.39,4.55,1.51,4.83,7.59.73,16.33-.6,24.05-.01,2.79-.22,1.44-4.48.81-6.3ZM116.22,27.94c0-3.01,2.44-5.46,5.46-5.46s5.47,2.45,5.47,5.46-2.45,5.47-5.47,5.47-5.46-2.45-5.46-5.47ZM110.75,45.9c2.76-12.27,19.63-13.01,21.83,0h-21.83ZM127.3,58.99h-8.73c-1.04.69-.9,2.2.18,2.73.73.35,7.11.32,8.02.02,1.72-.57,1.1-2.75.53-2.75ZM95.46,72.79v2.93h29.15v-2.93h-29.15ZM110.57,58.63h-13.82c-.55,0-1.56,2.63,1.43,2.93,2.36.23,9.81.31,11.96-.11.8-.16,1.12-.45,1.28-1.27.22-.5-.47-1.45-.85-1.55ZM110.57,58.63h-13.82c-.55,0-1.56,2.63,1.43,2.93,2.36.23,9.81.31,11.96-.11.8-.16,1.12-.45,1.28-1.27.22-.5-.47-1.45-.85-1.55ZM95.46,72.79v2.93h29.15v-2.93h-29.15ZM127.3,58.99h-8.73c-1.04.69-.9,2.2.18,2.73.73.35,7.11.32,8.02.02,1.72-.57,1.1-2.75.53-2.75ZM134.68,42.52c-1.19-3.37-4.06-6.88-7.56-7.9.24-1.24,1.51-1.77,2.14-3.13,2.44-5.25-.9-11.32-6.69-11.78-8.52-.66-12.47,9.31-6,14.73-3.68,2.13-7.16,5.27-8.26,9.56-.55,2.2-1.39,4.55,1.51,4.83,7.59.73,16.33-.6,24.05-.01,2.79-.22,1.44-4.48.81-6.3ZM116.22,27.94c0-3.01,2.44-5.46,5.46-5.46s5.47,2.45,5.47,5.46-2.45,5.47-5.47,5.47-5.46-2.45-5.46-5.47ZM110.75,45.9c2.76-12.27,19.63-13.01,21.83,0h-21.83ZM134.68,42.52c-1.19-3.37-4.06-6.88-7.56-7.9.24-1.24,1.51-1.77,2.14-3.13,2.44-5.25-.9-11.32-6.69-11.78-8.52-.66-12.47,9.31-6,14.73-3.68,2.13-7.16,5.27-8.26,9.56-.55,2.2-1.39,4.55,1.51,4.83,7.59.73,16.33-.6,24.05-.01,2.79-.22,1.44-4.48.81-6.3ZM116.22,27.94c0-3.01,2.44-5.46,5.46-5.46s5.47,2.45,5.47,5.46-2.45,5.47-5.47,5.47-5.46-2.45-5.46-5.47ZM110.75,45.9c2.76-12.27,19.63-13.01,21.83,0h-21.83ZM127.3,58.99h-8.73c-1.04.69-.9,2.2.18,2.73.73.35,7.11.32,8.02.02,1.72-.57,1.1-2.75.53-2.75ZM95.46,75.72h29.15v-2.93h-29.15v2.93ZM98.18,61.56c2.36.23,9.81.31,11.96-.11.8-.16,1.12-.45,1.28-1.27.22-.5-.47-1.45-.85-1.55h-13.82c-.55,0-1.56,2.63,1.43,2.93ZM190.78,21.34c-1.02-1.04-5.67-5.02-6.8-5.57-2.67-1.29-4.87-.67-7.03,1.22l-14.91,17.27v-15.46c0-4.39-4.56-9.42-8.95-9.97l-62.79.06c-7.53,1.69-9.42,8.59-8.68,15.51-6.39,2.4-19.44,2.77-22.81,9.38-2.4,4.7-.41,9.28.76,14.01,5.82,23.51,12.8,46.78,18.9,70.21,1.74,4.12,6.2,6.64,10.66,6.11l45.18-11.92c9.64-1.32,24.48,4.23,27.36-9.01l.44-39.21c10.04-12.1,20.98-23.56,30.56-35.99.9-2.72-.01-4.71-1.89-6.64ZM121.38,112.71c-10.69,3.44-22.27,5.58-33.09,8.74-2.84-.12-5.64-1.5-6.95-4.13-6.06-24.52-14.52-49.29-19.95-73.89-.82-3.72-1.83-6.71,1.17-9.91,3.27-3.48,14.42-4.28,19.1-6.17v76.19c0,2.87,5.7,8.55,8.54,8.55h32.19c.08.53-.63.5-1.01.62ZM159.13,102.09c-.46,3.41-3.53,6.88-7.08,7.11l-61.46-.04c-3.05-.88-5.66-3.43-6.02-6.71l.25-85.22c1.13-3.67,4.53-5.71,8.28-5.9,18.56,1.12,38.77-1.44,57.13,0,13.68,1.07,7.61,17.12,8.82,26.31l-17.9,21.01c-1.64,1.2-8.14-1.15-7.34,2.18.39,1.64,3.03.76,4.22,1.25-1.54,2.42-4.64,4.67-6.02,7.07-1.75,3.06-4.47,11.12-5.63,14.74-.41,1.28-.27,2.55-.9,3.47h-31.64c-.62,0-.9,1.84.18,2.36l37.49.39c1.04-.24,14.48-7.72,15.44-8.56,3.31-2.91,7-8.56,10.17-12.02.58-.63,1.27-1.36,2.01-1.81v34.37ZM133.67,72.45l9.45,7.82-12.02,6.89c-.75.43-1.98.25-2.36-.53-.48-.97,4.63-12.12,4.93-14.18ZM145.52,78.85l-10.47-9.05,37.06-42.85,10.47,9.05-37.06,42.85ZM109.82,48.83c7.59.73,16.33-.6,24.05-.01,2.79-.22,1.44-4.48.81-6.3-1.19-3.37-4.06-6.88-7.56-7.9.24-1.24,1.51-1.77,2.14-3.13,2.44-5.25-.9-11.32-6.69-11.78-8.52-.66-12.47,9.31-6,14.73-3.68,2.13-7.16,5.27-8.26,9.56-.55,2.2-1.39,4.55,1.51,4.83ZM116.22,27.94c0-3.01,2.44-5.46,5.46-5.46s5.47,2.45,5.47,5.46-2.45,5.47-5.47,5.47-5.46-2.45-5.46-5.47ZM132.58,45.9h-21.83c2.76-12.27,19.63-13.01,21.83,0ZM127.3,58.99h-8.73c-1.04.69-.9,2.2.18,2.73.73.35,7.11.32,8.02.02,1.72-.57,1.1-2.75.53-2.75ZM124.61,72.79h-29.15v2.93h29.15v-2.93ZM98.18,61.56c2.36.23,9.81.31,11.96-.11.8-.16,1.12-.45,1.28-1.27.22-.5-.47-1.45-.85-1.55h-13.82c-.55,0-1.56,2.63,1.43,2.93ZM110.57,58.63h-13.82c-.55,0-1.56,2.63,1.43,2.93,2.36.23,9.81.31,11.96-.11.8-.16,1.12-.45,1.28-1.27.22-.5-.47-1.45-.85-1.55ZM95.46,72.79v2.93h29.15v-2.93h-29.15ZM127.3,58.99h-8.73c-1.04.69-.9,2.2.18,2.73.73.35,7.11.32,8.02.02,1.72-.57,1.1-2.75.53-2.75ZM134.68,42.52c-1.19-3.37-4.06-6.88-7.56-7.9.24-1.24,1.51-1.77,2.14-3.13,2.44-5.25-.9-11.32-6.69-11.78-8.52-.66-12.47,9.31-6,14.73-3.68,2.13-7.16,5.27-8.26,9.56-.55,2.2-1.39,4.55,1.51,4.83,7.59.73,16.33-.6,24.05-.01,2.79-.22,1.44-4.48.81-6.3ZM116.22,27.94c0-3.01,2.44-5.46,5.46-5.46s5.47,2.45,5.47,5.46-2.45,5.47-5.47,5.47-5.46-2.45-5.46-5.47ZM110.75,45.9c2.76-12.27,19.63-13.01,21.83,0h-21.83ZM134.68,42.52c-1.19-3.37-4.06-6.88-7.56-7.9.24-1.24,1.51-1.77,2.14-3.13,2.44-5.25-.9-11.32-6.69-11.78-8.52-.66-12.47,9.31-6,14.73-3.68,2.13-7.16,5.27-8.26,9.56-.55,2.2-1.39,4.55,1.51,4.83,7.59.73,16.33-.6,24.05-.01,2.79-.22,1.44-4.48.81-6.3ZM116.22,27.94c0-3.01,2.44-5.46,5.46-5.46s5.47,2.45,5.47,5.46-2.45,5.47-5.47,5.47-5.46-2.45-5.46-5.47ZM110.75,45.9c2.76-12.27,19.63-13.01,21.83,0h-21.83ZM127.3,58.99h-8.73c-1.04.69-.9,2.2.18,2.73.73.35,7.11.32,8.02.02,1.72-.57,1.1-2.75.53-2.75ZM95.46,72.79v2.93h29.15v-2.93h-29.15ZM110.57,58.63h-13.82c-.55,0-1.56,2.63,1.43,2.93,2.36.23,9.81.31,11.96-.11.8-.16,1.12-.45,1.28-1.27.22-.5-.47-1.45-.85-1.55ZM110.57,58.63h-13.82c-.55,0-1.56,2.63,1.43,2.93,2.36.23,9.81.31,11.96-.11.8-.16,1.12-.45,1.28-1.27.22-.5-.47-1.45-.85-1.55ZM95.46,72.79v2.93h29.15v-2.93h-29.15ZM127.3,58.99h-8.73c-1.04.69-.9,2.2.18,2.73.73.35,7.11.32,8.02.02,1.72-.57,1.1-2.75.53-2.75ZM134.68,42.52c-1.19-3.37-4.06-6.88-7.56-7.9.24-1.24,1.51-1.77,2.14-3.13,2.44-5.25-.9-11.32-6.69-11.78-8.52-.66-12.47,9.31-6,14.73-3.68,2.13-7.16,5.27-8.26,9.56-.55,2.2-1.39,4.55,1.51,4.83,7.59.73,16.33-.6,24.05-.01,2.79-.22,1.44-4.48.81-6.3ZM116.22,27.94c0-3.01,2.44-5.46,5.46-5.46s5.47,2.45,5.47,5.46-2.45,5.47-5.47,5.47-5.46-2.45-5.46-5.47ZM110.75,45.9c2.76-12.27,19.63-13.01,21.83,0h-21.83ZM134.68,42.52c-1.19-3.37-4.06-6.88-7.56-7.9.24-1.24,1.51-1.77,2.14-3.13,2.44-5.25-.9-11.32-6.69-11.78-8.52-.66-12.47,9.31-6,14.73-3.68,2.13-7.16,5.27-8.26,9.56-.55,2.2-1.39,4.55,1.51,4.83,7.59.73,16.33-.6,24.05-.01,2.79-.22,1.44-4.48.81-6.3ZM116.22,27.94c0-3.01,2.44-5.46,5.46-5.46s5.47,2.45,5.47,5.46-2.45,5.47-5.47,5.47-5.46-2.45-5.46-5.47ZM110.75,45.9c2.76-12.27,19.63-13.01,21.83,0h-21.83ZM127.3,58.99h-8.73c-1.04.69-.9,2.2.18,2.73.73.35,7.11.32,8.02.02,1.72-.57,1.1-2.75.53-2.75ZM95.46,72.79v2.93h29.15v-2.93h-29.15ZM110.57,58.63h-13.82c-.55,0-1.56,2.63,1.43,2.93,2.36.23,9.81.31,11.96-.11.8-.16,1.12-.45,1.28-1.27.22-.5-.47-1.45-.85-1.55ZM110.57,58.63h-13.82c-.55,0-1.56,2.63,1.43,2.93,2.36.23,9.81.31,11.96-.11.8-.16,1.12-.45,1.28-1.27.22-.5-.47-1.45-.85-1.55ZM95.46,72.79v2.93h29.15v-2.93h-29.15ZM127.3,58.99h-8.73c-1.04.69-.9,2.2.18,2.73.73.35,7.11.32,8.02.02,1.72-.57,1.1-2.75.53-2.75ZM134.68,42.52c-1.19-3.37-4.06-6.88-7.56-7.9.24-1.24,1.51-1.77,2.14-3.13,2.44-5.25-.9-11.32-6.69-11.78-8.52-.66-12.47,9.31-6,14.73-3.68,2.13-7.16,5.27-8.26,9.56-.55,2.2-1.39,4.55,1.51,4.83,7.59.73,16.33-.6,24.05-.01,2.79-.22,1.44-4.48.81-6.3ZM116.22,27.94c0-3.01,2.44-5.46,5.46-5.46s5.47,2.45,5.47,5.46-2.45,5.47-5.47,5.47-5.46-2.45-5.46-5.47ZM110.75,45.9c2.76-12.27,19.63-13.01,21.83,0h-21.83ZM134.68,42.52c-1.19-3.37-4.06-6.88-7.56-7.9.24-1.24,1.51-1.77,2.14-3.13,2.44-5.25-.9-11.32-6.69-11.78-8.52-.66-12.47,9.31-6,14.73-3.68,2.13-7.16,5.27-8.26,9.56-.55,2.2-1.39,4.55,1.51,4.83,7.59.73,16.33-.6,24.05-.01,2.79-.22,1.44-4.48.81-6.3ZM116.22,27.94c0-3.01,2.44-5.46,5.46-5.46s5.47,2.45,5.47,5.46-2.45,5.47-5.47,5.47-5.46-2.45-5.46-5.47ZM110.75,45.9c2.76-12.27,19.63-13.01,21.83,0h-21.83ZM127.3,58.99h-8.73c-1.04.69-.9,2.2.18,2.73.73.35,7.11.32,8.02.02,1.72-.57,1.1-2.75.53-2.75ZM95.46,72.79v2.93h29.15v-2.93h-29.15ZM110.57,58.63h-13.82c-.55,0-1.56,2.63,1.43,2.93,2.36.23,9.81.31,11.96-.11.8-.16,1.12-.45,1.28-1.27.22-.5-.47-1.45-.85-1.55ZM110.57,58.63h-13.82c-.55,0-1.56,2.63,1.43,2.93,2.36.23,9.81.31,11.96-.11.8-.16,1.12-.45,1.28-1.27.22-.5-.47-1.45-.85-1.55ZM95.46,72.79v2.93h29.15v-2.93h-29.15ZM127.3,58.99h-8.73c-1.04.69-.9,2.2.18,2.73.73.35,7.11.32,8.02.02,1.72-.57,1.1-2.75.53-2.75ZM134.68,42.52c-1.19-3.37-4.06-6.88-7.56-7.9.24-1.24,1.51-1.77,2.14-3.13,2.44-5.25-.9-11.32-6.69-11.78-8.52-.66-12.47,9.31-6,14.73-3.68,2.13-7.16,5.27-8.26,9.56-.55,2.2-1.39,4.55,1.51,4.83,7.59.73,16.33-.6,24.05-.01,2.79-.22,1.44-4.48.81-6.3ZM116.22,27.94c0-3.01,2.44-5.46,5.46-5.46s5.47,2.45,5.47,5.46-2.45,5.47-5.47,5.47-5.46-2.45-5.46-5.47ZM110.75,45.9c2.76-12.27,19.63-13.01,21.83,0h-21.83ZM134.68,42.52c-1.19-3.37-4.06-6.88-7.56-7.9.24-1.24,1.51-1.77,2.14-3.13,2.44-5.25-.9-11.32-6.69-11.78-8.52-.66-12.47,9.31-6,14.73-3.68,2.13-7.16,5.27-8.26,9.56-.55,2.2-1.39,4.55,1.51,4.83,7.59.73,16.33-.6,24.05-.01,2.79-.22,1.44-4.48.81-6.3ZM116.22,27.94c0-3.01,2.44-5.46,5.46-5.46s5.47,2.45,5.47,5.46-2.45,5.47-5.47,5.47-5.46-2.45-5.46-5.47ZM110.75,45.9c2.76-12.27,19.63-13.01,21.83,0h-21.83ZM127.3,58.99h-8.73c-1.04.69-.9,2.2.18,2.73.73.35,7.11.32,8.02.02,1.72-.57,1.1-2.75.53-2.75ZM95.46,72.79v2.93h29.15v-2.93h-29.15ZM110.57,58.63h-13.82c-.55,0-1.56,2.63,1.43,2.93,2.36.23,9.81.31,11.96-.11.8-.16,1.12-.45,1.28-1.27.22-.5-.47-1.45-.85-1.55ZM110.57,58.63h-13.82c-.55,0-1.56,2.63,1.43,2.93,2.36.23,9.81.31,11.96-.11.8-.16,1.12-.45,1.28-1.27.22-.5-.47-1.45-.85-1.55ZM95.46,72.79v2.93h29.15v-2.93h-29.15ZM127.3,58.99h-8.73c-1.04.69-.9,2.2.18,2.73.73.35,7.11.32,8.02.02,1.72-.57,1.1-2.75.53-2.75ZM134.68,42.52c-1.19-3.37-4.06-6.88-7.56-7.9.24-1.24,1.51-1.77,2.14-3.13,2.44-5.25-.9-11.32-6.69-11.78-8.52-.66-12.47,9.31-6,14.73-3.68,2.13-7.16,5.27-8.26,9.56-.55,2.2-1.39,4.55,1.51,4.83,7.59.73,16.33-.6,24.05-.01,2.79-.22,1.44-4.48.81-6.3ZM116.22,27.94c0-3.01,2.44-5.46,5.46-5.46s5.47,2.45,5.47,5.46-2.45,5.47-5.47,5.47-5.46-2.45-5.46-5.47ZM110.75,45.9c2.76-12.27,19.63-13.01,21.83,0h-21.83ZM134.68,42.52c-1.19-3.37-4.06-6.88-7.56-7.9.24-1.24,1.51-1.77,2.14-3.13,2.44-5.25-.9-11.32-6.69-11.78-8.52-.66-12.47,9.31-6,14.73-3.68,2.13-7.16,5.27-8.26,9.56-.55,2.2-1.39,4.55,1.51,4.83,7.59.73,16.33-.6,24.05-.01,2.79-.22,1.44-4.48.81-6.3ZM116.22,27.94c0-3.01,2.44-5.46,5.46-5.46s5.47,2.45,5.47,5.46-2.45,5.47-5.47,5.47-5.46-2.45-5.46-5.47ZM110.75,45.9c2.76-12.27,19.63-13.01,21.83,0h-21.83ZM127.3,58.99h-8.73c-1.04.69-.9,2.2.18,2.73.73.35,7.11.32,8.02.02,1.72-.57,1.1-2.75.53-2.75ZM95.46,72.79v2.93h29.15v-2.93h-29.15ZM110.57,58.63h-13.82c-.55,0-1.56,2.63,1.43,2.93,2.36.23,9.81.31,11.96-.11.8-.16,1.12-.45,1.28-1.27.22-.5-.47-1.45-.85-1.55ZM110.57,58.63h-13.82c-.55,0-1.56,2.63,1.43,2.93,2.36.23,9.81.31,11.96-.11.8-.16,1.12-.45,1.28-1.27.22-.5-.47-1.45-.85-1.55ZM95.46,72.79v2.93h29.15v-2.93h-29.15ZM127.3,58.99h-8.73c-1.04.69-.9,2.2.18,2.73.73.35,7.11.32,8.02.02,1.72-.57,1.1-2.75.53-2.75ZM134.68,42.52c-1.19-3.37-4.06-6.88-7.56-7.9.24-1.24,1.51-1.77,2.14-3.13,2.44-5.25-.9-11.32-6.69-11.78-8.52-.66-12.47,9.31-6,14.73-3.68,2.13-7.16,5.27-8.26,9.56-.55,2.2-1.39,4.55,1.51,4.83,7.59.73,16.33-.6,24.05-.01,2.79-.22,1.44-4.48.81-6.3ZM116.22,27.94c0-3.01,2.44-5.46,5.46-5.46s5.47,2.45,5.47,5.46-2.45,5.47-5.47,5.47-5.46-2.45-5.46-5.47ZM110.75,45.9c2.76-12.27,19.63-13.01,21.83,0h-21.83ZM134.68,42.52c-1.19-3.37-4.06-6.88-7.56-7.9.24-1.24,1.51-1.77,2.14-3.13,2.44-5.25-.9-11.32-6.69-11.78-8.52-.66-12.47,9.31-6,14.73-3.68,2.13-7.16,5.27-8.26,9.56-.55,2.2-1.39,4.55,1.51,4.83,7.59.73,16.33-.6,24.05-.01,2.79-.22,1.44-4.48.81-6.3ZM116.22,27.94c0-3.01,2.44-5.46,5.46-5.46s5.47,2.45,5.47,5.46-2.45,5.47-5.47,5.47-5.46-2.45-5.46-5.47ZM110.75,45.9c2.76-12.27,19.63-13.01,21.83,0h-21.83ZM127.3,58.99h-8.73c-1.04.69-.9,2.2.18,2.73.73.35,7.11.32,8.02.02,1.72-.57,1.1-2.75.53-2.75ZM95.46,72.79v2.93h29.15v-2.93h-29.15ZM110.57,58.63h-13.82c-.55,0-1.56,2.63,1.43,2.93,2.36.23,9.81.31,11.96-.11.8-.16,1.12-.45,1.28-1.27.22-.5-.47-1.45-.85-1.55ZM110.57,58.63h-13.82c-.55,0-1.56,2.63,1.43,2.93,2.36.23,9.81.31,11.96-.11.8-.16,1.12-.45,1.28-1.27.22-.5-.47-1.45-.85-1.55ZM95.46,72.79v2.93h29.15v-2.93h-29.15ZM127.3,58.99h-8.73c-1.04.69-.9,2.2.18,2.73.73.35,7.11.32,8.02.02,1.72-.57,1.1-2.75.53-2.75ZM134.68,42.52c-1.19-3.37-4.06-6.88-7.56-7.9.24-1.24,1.51-1.77,2.14-3.13,2.44-5.25-.9-11.32-6.69-11.78-8.52-.66-12.47,9.31-6,14.73-3.68,2.13-7.16,5.27-8.26,9.56-.55,2.2-1.39,4.55,1.51,4.83,7.59.73,16.33-.6,24.05-.01,2.79-.22,1.44-4.48.81-6.3ZM116.22,27.94c0-3.01,2.44-5.46,5.46-5.46s5.47,2.45,5.47,5.46-2.45,5.47-5.47,5.47-5.46-2.45-5.46-5.47ZM110.75,45.9c2.76-12.27,19.63-13.01,21.83,0h-21.83ZM134.68,42.52c-1.19-3.37-4.06-6.88-7.56-7.9.24-1.24,1.51-1.77,2.14-3.13,2.44-5.25-.9-11.32-6.69-11.78-8.52-.66-12.47,9.31-6,14.73-3.68,2.13-7.16,5.27-8.26,9.56-.55,2.2-1.39,4.55,1.51,4.83,7.59.73,16.33-.6,24.05-.01,2.79-.22,1.44-4.48.81-6.3ZM116.22,27.94c0-3.01,2.44-5.46,5.46-5.46s5.47,2.45,5.47,5.46-2.45,5.47-5.47,5.47-5.46-2.45-5.46-5.47ZM110.75,45.9c2.76-12.27,19.63-13.01,21.83,0h-21.83ZM127.3,58.99h-8.73c-1.04.69-.9,2.2.18,2.73.73.35,7.11.32,8.02.02,1.72-.57,1.1-2.75.53-2.75ZM95.46,72.79v2.93h29.15v-2.93h-29.15ZM110.57,58.63h-13.82c-.55,0-1.56,2.63,1.43,2.93,2.36.23,9.81.31,11.96-.11.8-.16,1.12-.45,1.28-1.27.22-.5-.47-1.45-.85-1.55ZM110.57,58.63h-13.82c-.55,0-1.56,2.63,1.43,2.93,2.36.23,9.81.31,11.96-.11.8-.16,1.12-.45,1.28-1.27.22-.5-.47-1.45-.85-1.55ZM95.46,72.79v2.93h29.15v-2.93h-29.15ZM127.3,58.99h-8.73c-1.04.69-.9,2.2.18,2.73.73.35,7.11.32,8.02.02,1.72-.57,1.1-2.75.53-2.75ZM134.68,42.52c-1.19-3.37-4.06-6.88-7.56-7.9.24-1.24,1.51-1.77,2.14-3.13,2.44-5.25-.9-11.32-6.69-11.78-8.52-.66-12.47,9.31-6,14.73-3.68,2.13-7.16,5.27-8.26,9.56-.55,2.2-1.39,4.55,1.51,4.83,7.59.73,16.33-.6,24.05-.01,2.79-.22,1.44-4.48.81-6.3ZM116.22,27.94c0-3.01,2.44-5.46,5.46-5.46s5.47,2.45,5.47,5.46-2.45,5.47-5.47,5.47-5.46-2.45-5.46-5.47ZM110.75,45.9c2.76-12.27,19.63-13.01,21.83,0h-21.83ZM134.68,42.52c-1.19-3.37-4.06-6.88-7.56-7.9.24-1.24,1.51-1.77,2.14-3.13,2.44-5.25-.9-11.32-6.69-11.78-8.52-.66-12.47,9.31-6,14.73-3.68,2.13-7.16,5.27-8.26,9.56-.55,2.2-1.39,4.55,1.51,4.83,7.59.73,16.33-.6,24.05-.01,2.79-.22,1.44-4.48.81-6.3ZM116.22,27.94c0-3.01,2.44-5.46,5.46-5.46s5.47,2.45,5.47,5.46-2.45,5.47-5.47,5.47-5.46-2.45-5.46-5.47ZM110.75,45.9c2.76-12.27,19.63-13.01,21.83,0h-21.83ZM127.3,58.99h-8.73c-1.04.69-.9,2.2.18,2.73.73.35,7.11.32,8.02.02,1.72-.57,1.1-2.75.53-2.75ZM95.46,72.79v2.93h29.15v-2.93h-29.15ZM110.57,58.63h-13.82c-.55,0-1.56,2.63,1.43,2.93,2.36.23,9.81.31,11.96-.11.8-.16,1.12-.45,1.28-1.27.22-.5-.47-1.45-.85-1.55ZM60.41,68.83l-2.86.62,6.09,28.42,2.87-.61-6.1-28.43ZM170.77,81.35c-.12-3.39-.12-6.78-.38-10.17-.04-1.19-2.16-1.91-2.64-.84-.68,1.48.08,2.69.12,4.09.05,1.92.12,12.87.8,13.57.32.32,1.02.46,1.47.4,1.92-.48.68-5.58.63-7.05ZM169.76,93.27c-.66.69-.82,3.89.28,4.47,3.89,1.21,2.21-7.05-.28-4.47ZM67.39,101.64c-.49-.58-1.8-.42-2.41-.04-.19,1.68-.13,4.6,2.23,3.88,1.45-.44.75-3.16.18-3.84Z"/>
        <path class="cls-2" d="M190.78,21.34c-1.02-1.04-5.67-5.02-6.8-5.57-2.67-1.29-4.87-.67-7.03,1.22l-14.91,17.27v-15.46c0-4.39-4.56-9.42-8.95-9.97l-62.79.06c-7.53,1.69-9.42,8.59-8.68,15.51-6.39,2.4-19.44,2.77-22.81,9.38-2.4,4.7-.41,9.28.76,14.01,5.82,23.51,12.8,46.78,18.9,70.21,1.74,4.12,6.2,6.64,10.66,6.11l45.18-11.92c9.64-1.32,24.48,4.23,27.36-9.01l.44-39.21c10.04-12.1,20.98-23.56,30.56-35.99.9-2.72-.01-4.71-1.89-6.64ZM121.38,112.71c-10.69,3.44-22.27,5.58-33.09,8.74-2.84-.12-5.64-1.5-6.95-4.13-6.06-24.52-14.52-49.29-19.95-73.89-.82-3.72-1.83-6.71,1.17-9.91,3.27-3.48,14.42-4.28,19.1-6.17v76.19c0,2.87,5.7,8.55,8.54,8.55h32.19c.08.53-.63.5-1.01.62ZM159.13,102.09c-.46,3.41-3.53,6.88-7.08,7.11l-61.46-.04c-3.05-.88-5.66-3.43-6.02-6.71l.25-85.22c1.13-3.67,4.53-5.71,8.28-5.9,18.56,1.12,38.77-1.44,57.13,0,13.68,1.07,7.61,17.12,8.82,26.31l-17.9,21.01c-1.64,1.2-8.14-1.15-7.34,2.18.39,1.64,3.03.76,4.22,1.25-1.54,2.42-4.64,4.67-6.02,7.07-1.75,3.06-4.47,11.12-5.63,14.74-.41,1.28-.27,2.55-.9,3.47h-31.64c-.62,0-.9,1.84.18,2.36l37.49.39c1.04-.24,14.48-7.72,15.44-8.56,3.31-2.91,7-8.56,10.17-12.02.58-.63,1.27-1.36,2.01-1.81v34.37ZM133.67,72.45l9.45,7.82-12.02,6.89c-.75.43-1.98.25-2.36-.53-.48-.97,4.63-12.12,4.93-14.18ZM145.52,78.85l-10.47-9.05,37.06-42.85,10.47,9.05-37.06,42.85Z"/>
        <rect class="cls-2" x="60.56" y="68.81" width="2.93" height="29.07" transform="translate(-16.1 14.86) rotate(-12.1)"/>
        <rect class="cls-2" x="100.19" y=".05" width="24.41" height="2.95"/>
        <path class="cls-2" d="M168.67,87.99c-.68-.69-.75-11.65-.8-13.56-.04-1.4-.8-2.61-.12-4.09.49-1.07,2.6-.35,2.65.84.26,3.39.26,6.78.38,10.17.05,1.46,1.29,6.57-.62,7.04-.46.06-1.16-.08-1.47-.4Z"/>
        <path class="cls-2" d="M169.76,93.27c2.49-2.58,4.17,5.68.27,4.47-1.09-.58-.94-3.78-.27-4.47Z"/>
        <path class="cls-2" d="M67.38,101.63c.57.68,1.27,3.4-.17,3.84-2.37.73-2.43-2.2-2.24-3.88.61-.38,1.92-.54,2.41.04Z"/>
        <path class="cls-2" d="M133.61.12c2.16,3.21-3.5,3.17-3.91,1.51-.46-1.84,2.75-1.73,3.91-1.51Z"/>
        <path class="cls-2" d="M134.68,42.52c-1.19-3.37-4.06-6.88-7.56-7.9.24-1.24,1.51-1.77,2.14-3.13,2.44-5.25-.9-11.32-6.69-11.78-8.52-.66-12.47,9.31-6,14.73-3.68,2.13-7.16,5.27-8.26,9.56-.55,2.2-1.39,4.55,1.51,4.83,7.59.73,16.33-.6,24.05-.01,2.79-.22,1.44-4.48.81-6.3ZM116.22,27.94c0-3.01,2.44-5.46,5.46-5.46s5.47,2.45,5.47,5.46-2.45,5.47-5.47,5.47-5.46-2.45-5.46-5.47ZM110.75,45.9c2.76-12.27,19.63-13.01,21.83,0h-21.83Z"/>
        <rect class="cls-2" x="95.46" y="72.79" width="29.15" height="2.93"/>
        <path class="cls-2" d="M111.42,60.18c-.16.82-.48,1.11-1.28,1.27-2.15.42-9.6.34-11.96.11-2.99-.3-1.98-2.93-1.43-2.93h13.82c.38.1,1.07,1.05.85,1.55Z"/>
        <path class="cls-2" d="M126.77,61.74c-.91.3-7.29.33-8.02-.02-1.08-.53-1.22-2.04-.18-2.73h8.73c.57,0,1.19,2.18-.53,2.75Z"/>
      </g>
    </g>
  </g>
</svg>