<?xml version="1.0" encoding="UTF-8"?>
<svg id="Capa_2" data-name="Capa 2" xmlns="http://www.w3.org/2000/svg" viewBox="0 0 167.41 121.26">
  <defs>
    <style>
      .cls-1 {
        fill: #181c36;
      }

      .cls-2 {
        fill: #0078d3;
      }
    </style>
  </defs>
  <g id="Capa_1-2" data-name="Capa 1">
    <g>
      <g>
        <g>
          <path class="cls-1" d="M43.05,82H2.34v-10.16l13.7-14.1c3.91-4.17,6.47-7.01,7.67-8.54s2.04-2.83,2.51-3.93c.47-1.09.71-2.24.71-3.44,0-1.48-.47-2.66-1.42-3.52-.95-.86-2.28-1.29-3.99-1.29s-3.55.51-5.35,1.54c-1.8,1.03-3.84,2.55-6.12,4.55L1.73,33.21c2.89-2.63,5.32-4.51,7.29-5.64,1.97-1.13,4.11-2,6.43-2.6,2.31-.6,4.92-.9,7.81-.9,3.63,0,6.87.65,9.73,1.95,2.85,1.3,5.06,3.16,6.64,5.57,1.57,2.41,2.36,5.11,2.36,8.11,0,2.24-.27,4.31-.82,6.21-.55,1.9-1.4,3.77-2.55,5.61-1.15,1.84-2.68,3.77-4.58,5.8-1.91,2.03-5.97,5.89-12.18,11.56v.39h21.22v12.73Z"/>
          <path class="cls-1" d="M0,90v-3.98h46.04v3.98H0Z"/>
        </g>
        <g>
          <path class="cls-2" d="M118.15.15c.23.14.36.4.29.87-.14.94-1.09,1-1.84,1h-16.66l-.49.49v23.05l-.49.49h-24.04l-.49.49v66.86c-.65.52-1.92.64-1.99-.3,0,0,.08-68.13.08-68.13,1.21-1.18,2.42-2.37,3.62-3.55,2.71-2.66,5.43-5.32,8.14-7.97,2.86-2.8,5.72-5.6,8.58-8.4,1.63-1.59,3.2-3.3,4.91-4.8.39-.34.9-.21,1.38-.21.7,0,1.39,0,2.09,0h4.07c3.69,0,7.38,0,11.08,0,.53,0,1.33-.16,1.76.11ZM97.48,24.09V3.67l-21.08,20.42h21.08Z"/>
          <path class="cls-2" d="M165.68,91.53c.46-.42,1.05-.46,1.5.48.23.49.23,1.05.23,1.58-.02,4.34-.05,8.69-.07,13.03-.03,4.9-.16,10.86-5.19,13.39-2.41,1.22-5.23,1.24-7.93,1.24-24.24,0-48.48,0-72.72,0-3.44-.07-6.91-1.98-8.3-5.2-1.81-4.21-.96-10.3-.83-14.75.02-.72.93-2.24,1.76-1.27.26.3.3.73.33,1.12.24,4.1-.75,8.45.16,12.49.5,2.24,2.05,4.56,4.42,5.12,25.74,1.16,51.74.16,77.57.51,3.41-.28,6.1-1.34,7.68-4.51.25-.5,1.04-2.21,1.04-2.59,0-3.8,0-7.6,0-11.4,0-1.8-.2-3.59-.2-5.39,0-.75-.29-2.25-.04-2.93.13-.36.34-.71.6-.94Z"/>
          <path class="cls-2" d="M154.78,90.48c0,10.11-8.2,18.31-18.31,18.31s-18.31-8.2-18.31-18.31,8.2-18.31,18.31-18.31,18.31,8.2,18.31,18.31ZM152.73,90.5c0-8.98-7.28-16.26-16.26-16.26s-16.26,7.28-16.26,16.26,7.28,16.26,16.26,16.26,16.26-7.28,16.26-16.26Z"/>
          <path class="cls-2" d="M165.49,75.99c-.24-.31-.16-.82-.16-1.18V7.79c0-1.99-3.51-5.76-5.43-5.76h-14.82c-.65,0-.65-1.98,0-1.98h15.48c2.77,0,7.04,5.13,6.75,8.07v1.08c0,1.01,0,2.02,0,3.02v4.62c0,1.96,0,3.92,0,5.88v6.79c0,2.45,0,4.91,0,7.36v7.6c0,2.5,0,4.99,0,7.49v7.04c0,2.08,0,4.16,0,6.25v5.11c0,1.21,0,2.43,0,3.64,0,.36,0,.72,0,1.08,0,.59.12.91-.57,1.1-.36.1-.9.16-1.2-.13-.02-.02-.04-.04-.06-.07Z"/>
          <rect class="cls-2" x="85.27" y="33.97" width="71.42" height="1.98"/>
          <rect class="cls-2" x="85.27" y="60.65" width="71.18" height="1.98"/>
          <rect class="cls-2" x="85.36" y="42.86" width="71.09" height="1.98"/>
          <path class="cls-2" d="M105.6,104.01c-1.09,1.04-2.88,1.15-4.25.68-4.63-1.59-2.31-9.96.38-12.64-.82-2.49-6.19-2.88-7.88-1.6-.65.49.94,3.4.93,4.61-.02,1.65-1.05,3.51-2.75,3.93-2.89.7-4.35-2.88-3.99-5.16.16-1,.59-1.95,1.23-2.73s.71-1.01.67-2.01c-.1-2.51,2.26-.23,2.43-.21.33.03,3.58-1.28,5.22-1.2,2.22.1,5.22,2.28,5.66,2.29.76,0,4.3-4.07,5.94-2.66,1.3,1.87-4.12,2.71-4.43,4.51,2,2.85,3.65,9.53.84,12.19ZM91.83,92.06c-.09-.03-.2-.02-.32.03-.83.31-1.26,1.11-1.41,1.91-.12.66-.09,2.55.7,2.86,1.5.59,1.84-1.55,1.7-2.5-.1-.69-.3-1.36-.47-2.03-.04-.16-.11-.25-.2-.28ZM103.24,93.59c-1.91,1.59-4.2,8.88-.67,9.24,3.98.4,2.49-7.34.67-9.24Z"/>
          <rect class="cls-2" x="110.03" y="16.84" width="46.71" height="2.31"/>
          <rect class="cls-2" x="110.08" y="25.74" width="46.37" height="1.98"/>
          <rect class="cls-2" x="85.28" y="51.75" width="41.85" height="2"/>
          <rect class="cls-2" x="85.36" y="69.54" width="35.52" height="1.98"/>
          <rect class="cls-2" x="98.59" y="64.76" width="2.34" height="28.98" transform="translate(20.49 179.01) rotate(-89.99)"/>
          <rect class="cls-2" x="133.68" y="51.75" width="22.77" height="1.99"/>
          <path class="cls-2" d="M126.36.16s.07-.04.11-.05c.19-.07.4-.07.6-.07,2.71,0,5.41,0,8.12,0h3.29l.34.32c.45.61-.12,1.4-.73,1.58-1.3.38-2.99.17-4.32.19-1.93.02-3.87.03-5.81-.05-.59-.03-1.61,0-1.94-.62-.2-.39-.04-1.06.35-1.3Z"/>
          <path class="cls-2" d="M148.86,69.54h7.08c.65,0,.65,1.98,0,1.98h-6.59c-.63,0-.91-1.42-.49-1.98Z"/>
          <polygon class="cls-2" points="97.48 24.09 76.4 24.09 97.48 3.67 97.48 24.09"/>
          <path class="cls-2" d="M129.72,78.79c.75,1.07-1.87,2.6-2.59,3.43-6.25,7.2-2.48,18.46,6.82,20.5,1.26.28,3.62-.46,3.55,1.44-.23,1.36-2.88.72-3.87.53-10.16-1.96-14.83-13.58-9.22-22.21.63-.96,4.1-5.41,5.31-3.68Z"/>
          <path class="cls-2" d="M150.42,87.08c1.99,6.88-2.28,15.36-9.46,16.89l-.52-1.51c4.35-1.94,7.81-5.48,8.38-10.4.22-1.89-1.18-6.39,1.6-4.99Z"/>
          <path class="cls-2" d="M133.96,76.21c5.22-.8,10.67,1.15,13.9,5.35,1.02,1.33,2.6,3.86-.33,3.3-1.78-3.56-5.72-6.37-9.71-6.76-1.1-.11-5.1.43-5.45.18-.45-.32-.42-1.09-.17-1.53.19-.27,1.34-.48,1.76-.55Z"/>
        </g>
      </g>
      <rect class="cls-2" x="165.22" y="80.84" width="2.08" height="7.69" rx="1.04" ry="1.04"/>
      <rect class="cls-2" x="140.83" y="93.9" width="3.75" height="1.98" rx=".99" ry=".99"/>
      <rect class="cls-2" x="127.84" y="85.64" width="16.75" height="1.98" rx=".99" ry=".99"/>
      <rect class="cls-2" x="127.84" y="93.9" width="10" height="1.98" rx=".99" ry=".99"/>
    </g>
  </g>
</svg>